<?xml version="1.0" encoding="utf-8"?>
<!-- Generator: Adobe Illustrator 26.3.0, SVG Export Plug-In . SVG Version: 6.00 Build 0)  -->
<svg version="1.1" id="Capa_1" xmlns="http://www.w3.org/2000/svg" xmlns:xlink="http://www.w3.org/1999/xlink" x="0px" y="0px"
	 viewBox="0 0 32 32" style="enable-background:new 0 0 32 32;" xml:space="preserve">
<style type="text/css">
	.st0{fill:#BC002D;}
	.st1{fill:#F43192;}
	.st2{fill:#FF1E0D;}
	.st3{fill:#D54CE0;}
</style>
<g>
	<path class="st0" d="M16.1,24.6l-3.4-3.3l3.3-3.3l3.4,3.3L16.1,24.6z M10.2,12.1l2.3,2.4l0-0.1l2.9-2.9l0,0l0.6-0.6l-3.5-3.4
		l-1.9,1.9L7.2,5.9l0,0l-4.9,5l-1.9,2l2,1.9l4.8,4.7L9,17.7l0,0l-4.8-4.8l4.9-5l3,3l-1.6,1.6L10.2,12.1z M23.3,10.9l-1.6,1.6
		l-1.6-1.6l1.6-1.5l1.1-1l-1.1,1.1l-1.9-1.9L18.2,9l-2,1.9l1.9,2l1.6,1.6L23.3,10.9L23.3,10.9z M29.8,10.7l-4.2-4.2l-0.5-0.5l-2,1.9
		l0.4,0.4l4.3,4.3L22.6,18l1.9,1.9l5.3-5.4l1.9-2L29.8,10.7z M18,16.1l-2-1.9l-1.9,2l-3.2,3.3l1.9,2l-1.8,2l3.3,3.2l2,1.9l1.9-2
		l3.2-3.2l-1.9-2l1.9-2L18,16.1z"/>
	<polygon class="st1" points="12.8,21.4 10.9,23.4 7.1,19.6 9,17.7 9,17.6 10.8,19.4 10.8,19.4 	"/>
	<polygon class="st1" points="24.6,19.9 23.3,21.3 21.4,23.2 21.3,23.3 19.4,21.3 21.3,19.3 21.3,19.3 22.6,18 	"/>
	<polygon class="st2" points="25.2,12.9 23.6,14.5 21.6,16.4 19.7,14.5 23.3,10.9 	"/>
	<polygon class="st2" points="12.5,14.4 10.6,16.4 8.6,14.4 7,12.8 8.9,10.9 10.2,12.1 	"/>
	<polygon class="st3" points="12.5,7.4 10.6,9.3 7.2,5.9 9,4 11,5.9 	"/>
	<polygon class="st3" points="25.1,6.1 23.1,8 23.1,8 22.7,8.4 21.6,9.4 19.7,7.5 19.8,7.4 21.1,6.1 23.1,4.1 25.1,6.1 	"/>
	<polygon class="st3" points="23.1,8 23.1,8 22.7,8.4 	"/>
</g>
</svg>
