<?xml version="1.0" encoding="utf-8"?>
<!-- Generator: Adobe Illustrator 26.3.0, SVG Export Plug-In . SVG Version: 6.00 Build 0)  -->
<svg version="1.1" id="Capa_1" xmlns="http://www.w3.org/2000/svg" xmlns:xlink="http://www.w3.org/1999/xlink" x="0px" y="0px"
	 viewBox="0 0 200 70" style="enable-background:new 0 0 200 70;" xml:space="preserve">
<style type="text/css">
	.st0{fill:#056A70;}
	.st1{fill:#BC002D;}
	.st2{fill:#F43192;}
	.st3{fill:#FF1E0D;}
	.st4{fill:#D54CE0;}
</style>
<g>
	<path class="st0" d="M85.9,12.4V15h-3.5v10.2H79V15h-3.5v-2.5H85.9z"/>
	<path class="st0" d="M90.5,12.4v12.7h-3.2V12.4H90.5z"/>
	<path class="st0" d="M103.3,14.9h-6.7v2.6h5.3v2.4h-5.3v2.8h6.7v2.5h-10V12.4h10C103.3,12.4,103.3,14.9,103.3,14.9z"/>
	<path class="st0" d="M108.6,20.1v5h-3.3V12.4h6.1c1.1,0,2,0.1,2.7,0.4c0.7,0.3,1.2,0.7,1.8,1.3c0.4,0.6,0.7,1.3,0.7,2.1
		c0,1.5-0.8,2.6-2.5,3.2l2.6,5.6h-3.6l-2.2-5L108.6,20.1L108.6,20.1z M108.6,14.7v3.2h2c0.7,0,1.1,0,1.4-0.1s0.5-0.3,0.8-0.5
		c0.3-0.3,0.4-0.6,0.4-1s-0.1-0.7-0.4-1s-0.5-0.4-0.8-0.5c-0.3-0.1-0.8-0.1-1.6-0.1L108.6,14.7L108.6,14.7z"/>
	<path class="st0" d="M122.5,20.1v5h-3.3V12.4h6.1c1.1,0,2,0.1,2.7,0.4c0.7,0.3,1.2,0.7,1.8,1.3c0.4,0.6,0.7,1.3,0.7,2.1
		c0,1.5-0.8,2.6-2.5,3.2l2.6,5.6H127l-2.2-5L122.5,20.1L122.5,20.1z M122.5,14.7v3.2h2c0.7,0,1.1,0,1.4-0.1s0.5-0.3,0.8-0.5
		c0.3-0.3,0.4-0.6,0.4-1s-0.1-0.7-0.4-1c-0.3-0.3-0.5-0.4-0.8-0.5c-0.3-0.1-0.8-0.1-1.6-0.1L122.5,14.7L122.5,14.7z"/>
	<path class="st0" d="M139.8,12.4l4.4,12.7h-3.5l-0.9-2.6h-4.6l-0.9,2.6h-2.8l4.5-12.7C136,12.4,139.8,12.4,139.8,12.4z M136,20.2h3
		l-1.5-4.5L136,20.2z"/>
	<path class="st0" d="M93.3,31.9l-4.4,1.3c-0.6-1.6-1.8-2.4-3.8-2.4c-2,0-3.1,0.6-3.1,1.8c0,0.4,0.2,0.9,0.6,1.2
		c0.4,0.4,1.2,0.6,2.5,0.9c2.3,0.4,3.9,0.8,4.9,1.2c1.1,0.4,1.9,1.1,2.6,2c0.7,1,1.1,1.9,1.1,3.1c0,1.8-0.8,3.3-2.3,4.6
		c-1.5,1.4-3.8,2-6.7,2c-2.3,0-4.2-0.4-5.8-1.4s-2.6-2.3-3.2-4.1l4.7-1c0.5,1.8,2,2.8,4.5,2.8c1.1,0,2-0.2,2.6-0.6
		c0.6-0.4,0.9-0.9,0.9-1.5c0-0.6-0.3-1.1-0.8-1.3c-0.5-0.4-1.6-0.6-3.1-0.9c-2.8-0.5-4.8-1.2-6-2.1c-1.2-0.9-1.8-2.2-1.8-3.9
		c0-1.8,0.7-3.2,2.1-4.5s3.3-1.8,5.8-1.8C89.3,27.2,92.1,28.7,93.3,31.9z"/>
	<path class="st0" d="M107.7,27.5l6.8,19.9h-5.5l-1.3-4.1h-7.1l-1.4,4.1h-4.5l7-19.9H107.7z M101.9,39.6h4.6l-2.3-6.9L101.9,39.6z"
		/>
	<path class="st0" d="M133.8,27.5v19.9h-4.4L120.9,34c0,0.4,0,0.5,0,0.7c0,0.4,0.1,0.6,0.1,0.9v11.9h-4v-20h5.5l7.4,11.7
		c-0.1-0.6-0.1-1.1-0.1-1.3V27.5H133.8z"/>
	<path class="st0" d="M152.1,27.5v3.9h-5.4v15.9h-5.2V31.4h-5.4v-3.9H152.1z"/>
	<path class="st0" d="M163.5,27.5l6.8,19.9h-5.5l-1.3-4.1h-7.1l-1.4,4.1h-4.5l7-19.9H163.5z M157.7,39.6h4.6l-2.3-6.9L157.7,39.6z"
		/>
</g>
<g>
	<path class="st1" d="M86.1,50.7v9.7h-2.5v-4h-3.4v4h-2.5v-9.7h2.5v3.8h3.4v-3.8H86.1z"/>
	<path class="st1" d="M92.3,60.6c-1.5,0-2.6-0.5-3.4-1.5s-1.2-2.2-1.2-3.6c0-1.4,0.4-2.6,1.2-3.6c0.8-1,1.9-1.4,3.4-1.4
		s2.6,0.5,3.4,1.5s1.1,2.2,1.1,3.5c0,1.4-0.4,2.6-1.2,3.6C95,60.1,93.8,60.6,92.3,60.6z M92.4,52.4c-1.3,0-2,1.1-2,3.2
		c0,2.1,0.7,3.2,2,3.2s1.9-1.1,1.9-3.2C94.3,53.4,93.7,52.4,92.4,52.4z"/>
	<path class="st1" d="M101.2,58.5h4.3v1.9h-6.8v-9.7h2.6L101.2,58.5L101.2,58.5z"/>
	<path class="st1" d="M106.7,50.7h3.3c1.3,0,2.3,0.2,3,0.5s1.2,0.9,1.8,1.6c0.5,0.7,0.8,1.6,0.8,2.8c0,1.4-0.5,2.6-1.4,3.5
		s-2.2,1.4-3.8,1.4h-3.7C106.7,60.5,106.7,50.7,106.7,50.7z M109.2,52.5v6.1h1c0.9,0,1.6-0.3,2-0.9c0.4-0.6,0.7-1.4,0.7-2.2
		c0-0.6-0.1-1.1-0.4-1.6s-0.6-0.9-0.9-1.1c-0.4-0.2-0.8-0.3-1.4-0.3H109.2z"/>
	<path class="st1" d="M119.7,50.7v9.7h-2.5v-9.7H119.7z"/>
	<path class="st1" d="M130.2,50.7v9.7H128l-4.2-6.6c0,0.2,0,0.3,0,0.3c0,0.2,0,0.3,0,0.4v5.8h-2v-9.7h2.7l3.7,5.7c0-0.3,0-0.5,0-0.6
		v-5.1L130.2,50.7L130.2,50.7z"/>
	<path class="st1" d="M140.7,55.2v5.2h-1.2c-0.1-0.4-0.2-0.7-0.4-1.1c-0.8,0.8-1.7,1.3-2.9,1.3c-1.4,0-2.5-0.5-3.3-1.4
		s-1.2-2.1-1.2-3.5c0-1.6,0.4-2.8,1.3-3.7c0.8-0.9,2-1.4,3.4-1.4c1.2,0,2.2,0.3,2.9,0.9c0.7,0.6,1.2,1.4,1.3,2.4l-2.4,0.3
		c-0.2-1.2-0.8-1.8-1.9-1.8c-0.7,0-1.2,0.3-1.6,0.8c-0.3,0.6-0.5,1.4-0.5,2.4s0.2,1.8,0.6,2.3c0.4,0.5,0.9,0.8,1.6,0.8
		c0.5,0,0.9-0.1,1.2-0.4c0.4-0.3,0.5-0.7,0.5-1.3h-2v-1.8H140.7z"/>
	<path class="st1" d="M154.2,52.8l-2.1,0.6c-0.3-0.8-0.9-1.2-1.8-1.2c-1,0-1.5,0.3-1.5,0.9c0,0.2,0.1,0.4,0.3,0.6
		c0.2,0.2,0.6,0.3,1.3,0.4c1.1,0.2,1.9,0.4,2.4,0.6c0.5,0.2,0.9,0.5,1.3,1s0.5,1,0.5,1.5c0,0.9-0.4,1.6-1.1,2.3
		c-0.7,0.6-1.9,1-3.3,1c-1.1,0-2-0.2-2.8-0.7s-1.3-1.1-1.5-2l2.3-0.5c0.3,0.9,1,1.4,2.2,1.4c0.6,0,1-0.1,1.3-0.3s0.4-0.4,0.4-0.7
		s-0.1-0.5-0.4-0.7c-0.3-0.2-0.8-0.3-1.5-0.4c-1.4-0.3-2.3-0.6-2.9-1.1c-0.6-0.4-0.9-1.1-0.9-2s0.3-1.6,1-2.2
		c0.7-0.6,1.6-0.9,2.8-0.9C152.2,50.5,153.6,51.3,154.2,52.8z"/>
	<path class="st1" d="M158.4,60.4H156v-2.2h2.4V60.4z"/>
	<path class="st1" d="M165.6,50.7l3.4,9.7h-2.7l-0.7-2h-3.5l-0.7,2h-2.2l3.5-9.7H165.6z M162.7,56.6h2.3l-1.1-3.4L162.7,56.6z"/>
	<path class="st1" d="M172.7,60.4h-2.4v-2.2h2.4V60.4z"/>
	<path class="st1" d="M183.3,54.3l-2.6,0.1c0-1.4-0.6-2.1-1.8-2.1c-1.3,0-2,1.1-2,3.2c0,1.2,0.2,2.1,0.5,2.5
		c0.4,0.4,0.9,0.7,1.5,0.7c1,0,1.7-0.6,1.9-1.8l2.4,0.1c-0.2,1.2-0.6,2.1-1.4,2.7c-0.8,0.6-1.8,0.9-2.9,0.9c-1.4,0-2.6-0.4-3.5-1.3
		c-0.9-0.9-1.3-2.1-1.3-3.7c0-1.5,0.4-2.7,1.3-3.6c0.9-0.9,2-1.4,3.5-1.4C181.5,50.5,183,51.8,183.3,54.3z"/>
	<path class="st1" d="M187,60.4h-2.4v-2.2h2.4V60.4z"/>
</g>
<g>
	<path class="st1" d="M37.3,55L30,47.9l7.1-7.2l7.2,7.1L37.3,55z M24.3,27.9l5,5.1l0.1-0.1l6.2-6.3l0,0l1.4-1.4l-7.5-7.4L25.3,22
		l-7.4-7.4l-0.1,0.1L7.1,25.5L3,29.7l4.2,4.2l10.4,10.2l4.1-4.1l0.1-0.1L11.4,29.6L22,18.8l6.6,6.5l-3.4,3.5L24.3,27.9z M52.7,25.4
		l-3.5,3.5l-3.4-3.5l3.4-3.3l2.3-2.3L49,22.2L44.9,18l-3.2,3.2l-4.2,4.2l4.2,4.2L45,33L52.7,25.4L52.7,25.4z M66.8,24.9l-9.2-9l-1-1
		L52.4,19l0.9,0.9l9.4,9.2L51.3,40.7l4.2,4.2l11.4-11.6l4.2-4.2L66.8,24.9z M41.2,36.5L37,32.3l-4.2,4.2l-7,7.2L30,48l-4,4.3l7.1,7
		l4.2,4.2l4.2-4.2l6.9-7l-4-4.4l4.1-4.2L41.2,36.5z"/>
	<polygon class="st2" points="30,48 26,52.3 17.7,44.1 21.8,40 21.9,39.9 25.8,43.8 25.8,43.7 	"/>
	<polygon class="st2" points="55.5,44.9 52.7,47.7 48.6,52 48.4,52.2 44.3,47.8 48.4,43.6 48.5,43.6 51.3,40.7 	"/>
	<polygon class="st3" points="56.9,29.7 53.4,33.1 49.1,37.3 45,33 52.7,25.4 	"/>
	<polygon class="st3" points="29.3,33 25.3,37.1 21,33 17.5,29.5 21.7,25.3 24.3,27.9 	"/>
	<polygon class="st4" points="29.4,17.8 25.3,22 17.8,14.6 21.9,10.4 26.2,14.6 	"/>
	<polygon class="st4" points="56.7,14.9 52.4,19 52.3,19 51.5,19.8 49,22.2 44.9,18 45.2,17.7 48.1,14.8 52.3,10.7 56.6,14.8 	"/>
	<polygon class="st4" points="52.3,19 52.4,19 51.5,19.8 	"/>
</g>
</svg>
