<?xml version="1.0" encoding="utf-8"?>
<!-- Generator: Adobe Illustrator 26.3.0, SVG Export Plug-In . SVG Version: 6.00 Build 0)  -->
<svg version="1.1" id="Capa_1" xmlns="http://www.w3.org/2000/svg" xmlns:xlink="http://www.w3.org/1999/xlink" x="0px" y="0px"
	 viewBox="0 0 800 768" style="enable-background:new 0 0 800 768;" xml:space="preserve">
<style type="text/css">
	.st0{fill:#1D1D1B;}
	.st1{fill:#10212D;}
	.st2{fill:#D61F1B;}
	.st3{fill:#BC002D;}
	.st4{fill:#F43192;}
	.st5{fill:#FF1E0D;}
	.st6{fill:#D54CE0;}
</style>
<image style="display:none;overflow:visible;" width="860" height="830" xlink:href="1E54750F.jpg"  transform="matrix(1 0 0 1 -48.8571 -31.3782)">
</image>
<g>
	<path class="st0" d="M262.5,364.2c-30,0-54.3,24.3-54.3,54.3c0,30,24.3,54.3,54.3,54.3s54.3-24.3,54.3-54.3
		C316.8,388.6,292.5,364.2,262.5,364.2z M262.5,450.9c-17.9,0-32.4-14.5-32.4-32.4c0-17.9,14.5-32.4,32.4-32.4s32.4,14.5,32.4,32.4
		C294.9,436.4,280.4,450.9,262.5,450.9z"/>
	<path class="st0" d="M638.2,364.2c-30,0-54.3,24.3-54.3,54.3c0,30,24.3,54.3,54.3,54.3s54.3-24.3,54.3-54.3
		C692.5,388.6,668.2,364.2,638.2,364.2z M638.2,450.9c-17.9,0-32.4-14.5-32.4-32.4c0-17.9,14.5-32.4,32.4-32.4s32.4,14.5,32.4,32.4
		C670.6,436.4,656.1,450.9,638.2,450.9z"/>
	<polygon class="st0" points="433.8,365.9 433.8,472 408.4,472 360,407 360,472 336.3,472 336.3,365.9 359.3,365.9 360,366.9 
		410.1,434.1 410.1,365.9 	"/>
	<g>
		<path class="st0" d="M133.3,471.3c-5-1-9.7-2.5-14.1-4.5c-4.4-2-8.3-4.4-11.8-7.1l9.6-16.5c4.2,3.4,9.1,6,14.6,7.8
			c5.5,1.8,11.2,2.7,17,2.7c6.7,0,11.9-1.1,15.7-3.3c3.7-2.2,5.6-5.4,5.6-9.4v-0.1c0-2.8-0.8-5.1-2.5-6.7c-1.7-1.7-3.8-2.9-6.5-3.7
			c-2.7-0.8-6.1-1.5-10.2-2.1c-0.2,0-0.3-0.1-0.4-0.1c-0.1,0-0.3,0-0.4-0.1l-1.7-0.2c-7.3-1.1-13.4-2.5-18.2-4.2
			c-4.8-1.7-8.9-4.6-12.3-8.9c-3.4-4.2-5-10.2-5-18v-0.1c0-6.9,1.6-12.8,4.7-17.6c3.2-4.9,7.8-8.6,13.8-11.2
			c6-2.6,13.3-3.8,21.8-3.8c3.9,0,7.9,0.4,12,1.3c4.1,0.9,8.1,2.1,12,3.8c3.9,1.7,7.6,3.7,11.1,6l-8.7,17c-4.2-2.8-8.6-5-13.2-6.6
			c-4.6-1.6-9-2.3-13.2-2.3c-6.3,0-11.2,1-14.7,3c-3.5,2-5.2,4.9-5.2,8.5v0.1c0,3.1,0.9,5.5,2.7,7.3c1.8,1.8,4,3.1,6.7,3.9
			c2.7,0.8,6.4,1.7,11.2,2.6c0.2,0,0.4,0.1,0.6,0.1c0.2,0,0.4,0.1,0.6,0.1c0.3,0,0.6,0.1,0.9,0.2c0.3,0.1,0.6,0.1,0.9,0.2
			c6.9,1.3,12.7,2.9,17.3,4.8c4.6,1.9,8.5,4.9,11.6,9.1c3.1,4.2,4.7,9.9,4.7,17.1v0.1c0,6.8-1.6,12.6-4.9,17.4
			c-3.3,4.8-8,8.5-14.3,11c-6.2,2.5-13.8,3.8-22.5,3.8C143.4,472.8,138.3,472.3,133.3,471.3z"/>
	</g>
	<path class="st0" d="M511.8,364.2c-30,0-54.3,24.3-54.3,54.3c0,25.9,18.2,47.6,42.5,53v10.6h22.1v-10.3c25.1-4.8,44-26.9,44-53.3
		C566.1,388.6,541.8,364.2,511.8,364.2z M522.1,449.3v-10.4h-22.1v9.9c-12.1-4.7-20.6-16.5-20.6-30.2c0-17.9,14.5-32.4,32.4-32.4
		c17.9,0,32.4,14.5,32.4,32.4C544.2,432.8,535,445,522.1,449.3z"/>
</g>
<g>
	<path d="M145.8,506.6c1.3-0.3,3.4-0.5,5.6-0.5c3.1,0,5,0.5,6.5,1.7c1.2,0.9,2,2.3,2,4.2c0,2.3-1.5,4.3-4,5.2v0.1
		c2.3,0.6,4.9,2.4,4.9,5.9c0,2-0.8,3.6-2,4.7c-1.7,1.5-4.3,2.2-8.2,2.2c-2.1,0-3.7-0.1-4.7-0.3V506.6z M148.9,516.3h2.8
		c3.2,0,5.1-1.7,5.1-4c0-2.8-2.1-3.9-5.2-3.9c-1.4,0-2.2,0.1-2.7,0.2V516.3z M148.9,527.7c0.6,0.1,1.5,0.1,2.6,0.1
		c3.2,0,6.1-1.2,6.1-4.6c0-3.2-2.8-4.6-6.1-4.6h-2.5V527.7z"/>
	<path d="M188.6,518.9h-9.2v8.5h10.3v2.6h-13.3v-23.7h12.8v2.6h-9.7v7.5h9.2V518.9z"/>
	<path d="M205.1,530v-23.7h3.3l7.6,12c1.8,2.8,3.1,5.3,4.3,7.7l0.1,0c-0.3-3.2-0.4-6-0.4-9.7v-9.9h2.9V530h-3.1l-7.5-12
		c-1.7-2.6-3.2-5.3-4.4-7.9l-0.1,0c0.2,3,0.2,5.8,0.2,9.8V530H205.1z"/>
	<path d="M239.7,506.6c1.9-0.3,4.1-0.5,6.5-0.5c4.4,0,7.5,1,9.6,3c2.1,1.9,3.3,4.7,3.3,8.5c0,3.9-1.2,7-3.4,9.2
		c-2.2,2.2-5.9,3.4-10.5,3.4c-2.2,0-4-0.1-5.6-0.3V506.6z M242.8,527.6c0.8,0.1,1.9,0.2,3.1,0.2c6.5,0,10.1-3.7,10.1-10.1
		c0-5.6-3.1-9.1-9.6-9.1c-1.6,0-2.8,0.1-3.6,0.3V527.6z"/>
	<path d="M277.6,506.3V530h-3.1v-23.7H277.6z"/>
	<path d="M299,508.9h-7.2v-2.6h17.5v2.6H302V530H299V508.9z"/>
	<path d="M324.6,522.6l-2.5,7.5H319l8.1-23.7h3.7l8.1,23.7h-3.3l-2.5-7.5H324.6z M332.4,520.2l-2.3-6.8c-0.5-1.5-0.9-3-1.2-4.3h-0.1
		c-0.4,1.4-0.7,2.8-1.2,4.3l-2.3,6.9H332.4z"/>
	<path d="M389.2,529.2c-1.1,0.6-3.4,1.1-6.3,1.1c-6.7,0-11.7-4.2-11.7-12c0-7.4,5-12.4,12.4-12.4c3,0,4.8,0.6,5.6,1.1l-0.7,2.5
		c-1.2-0.6-2.8-1-4.8-1c-5.6,0-9.2,3.6-9.2,9.8c0,5.8,3.3,9.5,9.1,9.5c1.9,0,3.8-0.4,5-1L389.2,529.2z"/>
	<path d="M424,517.9c0,8.2-5,12.5-11,12.5c-6.3,0-10.7-4.9-10.7-12c0-7.5,4.7-12.4,11-12.4C419.8,505.9,424,510.9,424,517.9z
		 M405.6,518.3c0,5.1,2.7,9.6,7.6,9.6c4.9,0,7.6-4.5,7.6-9.8c0-4.7-2.5-9.6-7.6-9.6C408.2,508.4,405.6,513.1,405.6,518.3z"/>
	<path d="M456,529.2c-1.1,0.6-3.4,1.1-6.3,1.1c-6.7,0-11.7-4.2-11.7-12c0-7.4,5-12.4,12.4-12.4c3,0,4.8,0.6,5.6,1.1l-0.7,2.5
		c-1.2-0.6-2.8-1-4.8-1c-5.6,0-9.2,3.6-9.2,9.8c0,5.8,3.3,9.5,9.1,9.5c1.9,0,3.8-0.4,5-1L456,529.2z"/>
	<path d="M474.4,506.3v9.9h11.5v-9.9h3.1V530h-3.1v-11.1h-11.5V530h-3.1v-23.7H474.4z"/>
	<path d="M508.7,506.3V530h-3.1v-23.7H508.7z"/>
	<path d="M525.5,530v-23.7h3.3l7.6,12c1.8,2.8,3.1,5.3,4.3,7.7l0.1,0c-0.3-3.2-0.4-6-0.4-9.7v-9.9h2.9V530h-3.1l-7.5-12
		c-1.7-2.6-3.2-5.3-4.4-7.9l-0.1,0c0.2,3,0.2,5.8,0.2,9.8V530H525.5z"/>
	<path d="M563.2,506.3V530h-3.1v-23.7H563.2z"/>
	<path d="M580,506.3h3.1v21.1h10.1v2.6H580V506.3z"/>
	<path d="M608.1,506.3h3.1v21.1h10.1v2.6h-13.2V506.3z"/>
	<path d="M640,522.6l-2.5,7.5h-3.2l8.1-23.7h3.7l8.1,23.7h-3.3l-2.5-7.5H640z M647.7,520.2l-2.3-6.8c-0.5-1.5-0.9-3-1.2-4.3h-0.1
		c-0.4,1.4-0.7,2.8-1.2,4.3l-2.3,6.9H647.7z"/>
</g>
<g>
	<path class="st1" d="M254.2,577.6v6.4h-8.9v26.1h-8.5V584h-8.9v-6.4H254.2z"/>
	<path class="st1" d="M266.2,577.6v32.5h-8.4v-32.5H266.2z"/>
	<path class="st1" d="M299,583.8h-17.1v6.6h13.5v6.1h-13.5v7.1H299v6.4h-25.6v-32.5H299V583.8L299,583.8z"/>
	<path class="st1" d="M312.5,597.2v12.9h-8.5v-32.5h15.8c2.9,0,5.2,0.3,7,0.9c1.8,0.6,3.2,1.7,4.4,3.4c1.1,1.6,1.8,3.5,1.8,5.5
		c0,3.9-2.1,6.7-6.2,8.4l6.6,14.4h-9.3l-5.5-12.9L312.5,597.2L312.5,597.2z M312.5,583.4v8.3h5.2c1.7,0,2.9-0.1,3.7-0.3
		c0.7-0.2,1.4-0.7,2-1.4c0.6-0.7,0.9-1.6,0.9-2.6c0-0.9-0.3-1.7-0.9-2.4c-0.6-0.7-1.2-1.1-1.9-1.3c-0.7-0.2-2-0.2-3.9-0.2H312.5z"/>
	<path class="st1" d="M347.9,597.2v12.9h-8.5v-32.5h15.8c2.9,0,5.2,0.3,7,0.9c1.8,0.6,3.2,1.7,4.4,3.4c1.1,1.6,1.8,3.5,1.8,5.5
		c0,3.9-2.1,6.7-6.2,8.4l6.6,14.4h-9.3l-5.5-12.9L347.9,597.2L347.9,597.2z M347.9,583.4v8.3h5.2c1.7,0,2.9-0.1,3.7-0.3
		c0.7-0.2,1.4-0.7,2-1.4c0.6-0.7,0.9-1.6,0.9-2.6c0-0.9-0.3-1.7-0.9-2.4c-0.6-0.7-1.2-1.1-1.9-1.3c-0.7-0.2-2-0.2-3.9-0.2H347.9z"/>
	<path class="st1" d="M392.5,577.6l11.2,32.5h-9l-2.2-6.7h-11.6l-2.3,6.7h-7.4l11.5-32.5H392.5z M382.9,597.4h7.6l-3.7-11.4
		L382.9,597.4z"/>
	<path class="st1" d="M445.9,584.8l-7.2,2.2c-1-2.6-3-3.9-6.1-3.9c-3.4,0-5,1-5,3c0,0.8,0.3,1.4,0.9,2c0.6,0.6,2,1,4.2,1.4
		c3.6,0.7,6.4,1.4,8,2c1.7,0.7,3.1,1.8,4.3,3.3c1.2,1.5,1.8,3.2,1.8,5.1c0,3-1.2,5.5-3.7,7.6c-2.5,2.2-6.2,3.2-11.1,3.2
		c-3.7,0-6.8-0.7-9.4-2.3c-2.6-1.5-4.3-3.7-5.1-6.8l7.8-1.6c0.9,3,3.3,4.5,7.3,4.5c1.9,0,3.4-0.3,4.3-1c1-0.7,1.4-1.5,1.4-2.4
		c0-1-0.5-1.7-1.3-2.2c-0.9-0.5-2.5-1-4.9-1.5c-4.5-0.9-7.8-2-9.8-3.5s-2.9-3.6-2.9-6.5s1.1-5.3,3.5-7.3s5.5-3,9.4-3
		C439.3,577.1,443.8,579.6,445.9,584.8z"/>
	<path class="st1" d="M469.5,577.6l11.2,32.5h-9l-2.2-6.7h-11.6l-2.3,6.7h-7.4l11.5-32.5H469.5z M459.9,597.4h7.6l-3.7-11.4
		L459.9,597.4z"/>
	<path class="st1" d="M512.2,577.6v32.5h-7.2l-14-21.9c0,0.6,0.1,0.9,0.1,1.1c0.1,0.6,0.1,1,0.1,1.4v19.4h-6.6v-32.5h9.1l12.2,19.1
		c-0.1-1-0.2-1.6-0.2-2.2v-17L512.2,577.6L512.2,577.6z"/>
	<path class="st1" d="M542.2,577.6v6.4h-8.9v26.1h-8.5V584h-8.9v-6.4H542.2z"/>
	<path class="st1" d="M560.9,577.6l11.2,32.5h-9l-2.2-6.7h-11.6l-2.3,6.7h-7.4l11.5-32.5H560.9z M551.3,597.4h7.6l-3.7-11.4
		L551.3,597.4z"/>
</g>
<g>
	<path class="st2" d="M312.3,623v18.5h-4.7v-7.6h-6.4v7.6h-4.7V623h4.7v7.2h6.4V623H312.3z"/>
	<path class="st2" d="M324,641.7c-2.7,0-4.9-0.9-6.4-2.8c-1.5-1.9-2.3-4.1-2.3-6.8c0-2.7,0.7-4.9,2.3-6.8c1.5-1.8,3.7-2.7,6.5-2.7
		c2.8,0,5,1,6.5,2.9c1.5,1.9,2.2,4.1,2.2,6.6c0,2.7-0.7,4.9-2.2,6.8C329.1,640.8,326.9,641.7,324,641.7z M324.2,626.2
		c-2.5,0-3.7,2-3.7,6c0,4,1.2,6,3.7,6c2.4,0,3.6-2,3.6-6C327.8,628.3,326.6,626.2,324.2,626.2z"/>
	<path class="st2" d="M340.8,637.8h8.1v3.6h-13V623h4.8V637.8z"/>
	<path class="st2" d="M351.4,623h6.2c2.6,0,4.4,0.3,5.7,1c1.2,0.6,2.4,1.6,3.4,3c1,1.4,1.5,3.1,1.5,5.2c0,2.7-0.9,4.8-2.6,6.6
		c-1.8,1.8-4.1,2.7-7.1,2.7h-7V623z M356.1,626.4V638h2c1.8,0,3-0.6,3.9-1.8c0.9-1.2,1.2-2.6,1.2-4.1c0-1.1-0.2-2.2-0.7-3.1
		c-0.5-1-1.1-1.6-1.8-2s-1.6-0.6-2.6-0.6H356.1L356.1,626.4z"/>
	<path class="st2" d="M376,623v18.5h-4.8V623H376z"/>
	<path class="st2" d="M395.8,623v18.5h-4.1l-8-12.5c0,0.3,0,0.5,0.1,0.6c0.1,0.3,0.1,0.6,0.1,0.8v11.1h-3.7V623h5.2l6.9,10.9
		c-0.1-0.6-0.1-1-0.1-1.2V623H395.8z"/>
	<path class="st2" d="M415.8,631.6v9.9h-2.2c-0.2-0.7-0.4-1.4-0.7-2.1c-1.5,1.6-3.3,2.4-5.6,2.4c-2.7,0-4.7-0.9-6.2-2.6
		c-1.5-1.7-2.2-4-2.2-6.7c0-3,0.8-5.3,2.4-7.1c1.6-1.8,3.7-2.7,6.4-2.7c2.3,0,4.1,0.6,5.5,1.7c1.4,1.1,2.3,2.7,2.6,4.6l-4.5,0.6
		c-0.3-2.2-1.5-3.4-3.5-3.4c-1.3,0-2.3,0.5-3,1.6c-0.7,1.1-1,2.6-1,4.5c0,1.9,0.3,3.4,1.1,4.3c0.7,1,1.8,1.5,3.1,1.5
		c0.9,0,1.6-0.2,2.3-0.7c0.7-0.5,1-1.3,1-2.4h-3.9v-3.5L415.8,631.6L415.8,631.6z"/>
	<path class="st2" d="M441.3,627.1l-4.1,1.2c-0.6-1.5-1.7-2.2-3.5-2.2c-1.9,0-2.8,0.6-2.8,1.6c0,0.5,0.2,0.8,0.5,1.1
		c0.3,0.3,1.1,0.6,2.4,0.8c2.1,0.4,3.6,0.7,4.5,1.1s1.8,1,2.4,1.9c0.7,0.9,1,1.8,1,2.9c0,1.6-0.7,3.1-2.1,4.3
		c-1.4,1.2-3.5,1.8-6.3,1.8c-2.1,0-3.9-0.5-5.3-1.3c-1.5-0.9-2.4-2.2-2.9-3.9l4.4-0.9c0.5,1.7,1.9,2.6,4.1,2.6
		c1.1,0,1.9-0.2,2.4-0.6s0.8-0.9,0.8-1.4c0-0.6-0.2-1-0.7-1.2c-0.5-0.3-1.4-0.6-2.8-0.9c-2.6-0.5-4.4-1.1-5.6-2
		c-1.1-0.9-1.6-2.1-1.6-3.7c0-1.6,0.7-3,2-4.1c1.3-1.1,3.1-1.7,5.4-1.7C437.6,622.7,440.2,624.2,441.3,627.1z"/>
	<path class="st2" d="M449.2,641.4h-4.6v-4.2h4.6V641.4z"/>
	<path class="st2" d="M463,623l6.4,18.5h-5.1l-1.2-3.8h-6.6l-1.3,3.8h-4.2l6.5-18.5H463z M457.5,634.2h4.3l-2.2-6.5L457.5,634.2z"/>
	<path class="st2" d="M476.4,641.4h-4.6v-4.2h4.6V641.4z"/>
	<path class="st2" d="M496.6,629.9l-5,0.3c-0.1-2.6-1.2-3.9-3.4-3.9c-2.5,0-3.7,2-3.7,6c0,2.3,0.3,3.9,1,4.7
		c0.7,0.9,1.6,1.2,2.8,1.2c2,0,3.2-1.1,3.6-3.5l4.7,0.3c-0.3,2.2-1.2,3.9-2.7,5.1c-1.5,1.1-3.4,1.7-5.6,1.7c-2.7,0-4.9-0.9-6.6-2.6
		c-1.7-1.7-2.6-4-2.6-7c0-2.8,0.8-5.1,2.4-6.9c1.6-1.8,3.9-2.7,6.7-2.7C493.2,622.7,496,625.1,496.6,629.9z"/>
	<path class="st2" d="M503.5,641.4h-4.6v-4.2h4.6V641.4z"/>
</g>
<g>
	<path class="st3" d="M401,307.7l-30-29.4l29.2-29.8l30,29.4L401,307.7z M347.4,195.3l20.7,21.2l0.4-0.4l25.7-26.2l0,0l5.6-5.7
		l-31.2-30.6l-17.3,17.3l-30.7-30.7l-0.4,0.4l-44,44.8l-17.2,17.6l17.5,17.2l43.2,42.4l17-17l0.4-0.4l-43.4-42.5l44-44.8l27.2,26.7
		l-14,14.3L347.4,195.3z M465,185.1l-14.6,14.3l-14.1-14.3l14-13.7l9.5-9.3l-10.1,9.6l-17.2-17.2l-13.4,13.1l-17.6,17.2l17.2,17.5
		l14.1,14.3L465,185.1L465,185.1z M523.3,182.9l-37.9-37.2l-4.2-4.1l-17.8,17l3.8,3.7l38.9,38.1l-46.9,47.8l17.4,17.4l47-48
		l17.2-17.5L523.3,182.9z M417.4,230.9l-17.5-17.2l-17.2,17.5l-29.1,29.6l17.2,17.7l-16.4,17.9l29.3,28.8l17.5,17.2l17.2-17.5
		l28.3-28.9l-16.7-18.2l17.1-17.6L417.4,230.9z"/>
	<polygon class="st4" points="370.8,278.6 354.5,296.4 319.9,262.5 336.9,245.5 337.3,245.1 353.5,261 353.6,260.9 	"/>
	<polygon class="st4" points="476.6,265.6 465,277.5 447.8,295.1 446.9,296 430.2,277.7 447.3,260.2 447.4,260.3 459.3,248.3 	"/>
	<polygon class="st5" points="482.2,202.7 467.6,217 450,234.2 432.8,216.7 465,185.2 	"/>
	<polygon class="st5" points="368.1,216.5 351.4,233.6 333.8,216.3 319.2,202 336.4,184.5 347.4,195.3 	"/>
	<polygon class="st6" points="368.7,153.5 351.3,170.9 320.7,140.2 337.5,123 355.1,140.2 	"/>
	<polygon class="st6" points="481.3,141.7 463.4,158.6 463.4,158.6 459.8,162.1 449.7,171.7 432.5,154.5 433.7,153.2 445.8,141.4 
		463.4,124.2 481,141.4 	"/>
	<polygon class="st6" points="463.4,158.6 463.4,158.6 459.8,162.1 	"/>
</g>
</svg>
