<?xml version="1.0" encoding="utf-8"?>
<!-- Generator: Adobe Illustrator 26.3.0, SVG Export Plug-In . SVG Version: 6.00 Build 0)  -->
<svg version="1.1" id="Capa_1" xmlns="http://www.w3.org/2000/svg" xmlns:xlink="http://www.w3.org/1999/xlink" x="0px" y="0px"
	 viewBox="0 0 400 400" style="enable-background:new 0 0 400 400;" xml:space="preserve">
<style type="text/css">
	.st0{fill:#BC002D;}
	.st1{fill:#F43192;}
	.st2{fill:#FF1E0D;}
	.st3{fill:#D54CE0;}
</style>
<g>
	<path class="st0" d="M201.37,314.99l-41.9-40.75l40.75-41.33l41.33,40.75L201.37,314.99z M126.76,159.44l28.7,29.27l0.57-0.57
		l35.59-36.16l0,0l8.04-8.04l-43.05-42.47l-24.11,24.11L90.02,83.11l-0.57,0.57l-61.41,61.99L4.5,169.78l24.11,24.11l59.69,58.54
		l23.53-23.53l0.57-0.57L52.71,169.2l60.84-61.99l37.88,37.31l-19.51,20.09L126.76,159.44z M289.76,145.09l-20.09,20.09
		l-19.51-20.09l19.51-18.94l13.2-13.2l-14.35,13.78l-23.53-24.11l-18.37,18.37l-24.11,24.11l24.11,24.11l18.94,19.51L289.76,145.09
		L289.76,145.09z M370.69,142.23l-52.8-51.66l-5.74-5.74l-24.11,23.53l5.17,5.17l53.95,52.8l-65.43,66.58l24.11,24.11l65.43-66.58
		l24.11-24.11L370.69,142.23z M223.76,208.81l-24.11-24.11l-24.11,24.11l-40.18,41.33l24.11,24.68l-22.96,24.68l40.75,40.18
		l24.11,24.11l24.11-24.11l39.6-40.18l-22.96-25.25l23.53-24.11L223.76,208.81z"/>
	<polygon class="st1" points="159.47,274.81 136.51,299.49 88.87,252.43 112.41,228.89 112.98,228.32 135.36,250.7 135.36,250.13 	
		"/>
	<polygon class="st1" points="305.83,257.02 289.76,273.09 266.23,297.77 265.08,298.92 241.55,273.66 265.08,249.56 265.66,249.56 
		281.73,232.91 	"/>
	<polygon class="st2" points="313.87,169.78 293.78,189.29 269.1,213.4 245.57,188.72 289.76,145.09 	"/>
	<polygon class="st2" points="155.45,188.72 132.49,212.25 107.81,188.72 87.73,168.63 111.83,144.52 126.76,159.44 	"/>
	<polygon class="st3" points="156.03,101.47 132.49,125.58 89.45,83.11 112.98,59 137.66,83.11 	"/>
	<polygon class="st3" points="312.72,84.83 288.04,108.36 287.47,108.36 282.87,112.95 268.53,126.73 244.99,102.62 246.71,100.9 
		263.36,84.25 287.47,60.72 312.15,84.25 	"/>
	<polygon class="st3" points="287.47,108.36 288.04,108.36 282.87,112.95 	"/>
</g>
</svg>
