<?xml version="1.0" encoding="utf-8"?>
<!-- Generator: Adobe Illustrator 26.3.0, SVG Export Plug-In . SVG Version: 6.00 Build 0)  -->
<svg version="1.1" id="Capa_1" xmlns="http://www.w3.org/2000/svg" xmlns:xlink="http://www.w3.org/1999/xlink" x="0px" y="0px"
	 viewBox="0 0 800 800" style="enable-background:new 0 0 800 800;" xml:space="preserve">
<style type="text/css">
	.st0{fill:#10212D;}
	.st1{fill:#D61F1B;}
	.st2{fill:#161F27;}
	.st3{fill:#056A70;}
	.st4{fill:#B27720;}
	.st5{fill:#C9201C;}
	.st6{fill:#F5F3E5;}
	.st7{fill:#DC271F;}
	.st8{fill:#B02220;}
</style>
<g>
	<path class="st0" d="M143.3,650.3v11.3h-15.6v45.9h-15v-45.9H97v-11.3H143.3z"/>
	<path class="st0" d="M164.5,650.3v57.2h-14.8v-57.2H164.5z"/>
	<path class="st0" d="M222.3,661.2h-30.1v11.7h23.7v10.8h-23.7v12.5h30.1v11.3h-45.1v-57.2h45.1V661.2z"/>
	<path class="st0" d="M246.1,684.8v22.7h-14.9v-57.2h27.8c5.1,0,9.2,0.5,12.3,1.6c3.1,1.1,5.7,3,7.7,5.9c2,2.9,3.1,6.1,3.1,9.6
		c0,6.9-3.7,11.8-11,14.8l11.7,25.3h-16.4l-9.7-22.7H246.1z M246.1,660.5v14.6h9.1c3,0,5.1-0.2,6.5-0.6c1.3-0.4,2.5-1.2,3.6-2.5
		c1-1.3,1.6-2.8,1.6-4.5c0-1.6-0.5-3-1.6-4.3c-1-1.3-2.2-2-3.4-2.3c-1.2-0.3-3.5-0.4-6.9-0.4H246.1z"/>
	<path class="st0" d="M308.4,684.8v22.7h-14.9v-57.2h27.8c5.1,0,9.2,0.5,12.3,1.6c3.1,1.1,5.7,3,7.7,5.9c2,2.9,3.1,6.1,3.1,9.6
		c0,6.9-3.7,11.8-11,14.8l11.7,25.3h-16.4l-9.7-22.7H308.4z M308.4,660.5v14.6h9.1c3,0,5.1-0.2,6.5-0.6c1.3-0.4,2.5-1.2,3.6-2.5
		c1-1.3,1.6-2.8,1.6-4.5c0-1.6-0.5-3-1.6-4.3c-1-1.3-2.2-2-3.4-2.3c-1.2-0.3-3.5-0.4-6.9-0.4H308.4z"/>
	<path class="st0" d="M386.8,650.3l19.8,57.2h-15.9l-3.9-11.8h-20.4l-4,11.8h-13l20.3-57.2H386.8z M369.9,685.2h13.4l-6.6-20.1
		L369.9,685.2z"/>
	<path class="st0" d="M480.8,662.9l-12.6,3.8c-1.7-4.5-5.3-6.8-10.8-6.8c-5.9,0-8.8,1.7-8.8,5.2c0,1.4,0.5,2.5,1.6,3.5
		c1.1,1,3.6,1.8,7.4,2.5c6.4,1.2,11.2,2.4,14.1,3.6c3,1.2,5.5,3.1,7.6,5.8c2.1,2.7,3.1,5.6,3.1,8.9c0,5.2-2.2,9.6-6.6,13.4
		c-4.4,3.8-10.9,5.7-19.5,5.7c-6.5,0-12-1.3-16.5-4c-4.5-2.7-7.5-6.6-9-11.9l13.7-2.8c1.5,5.3,5.8,8,12.8,8c3.4,0,5.9-0.6,7.6-1.8
		c1.7-1.2,2.5-2.6,2.5-4.2c0-1.7-0.8-3-2.3-3.9c-1.5-0.9-4.4-1.8-8.7-2.6c-8-1.5-13.8-3.6-17.2-6.2c-3.4-2.6-5.1-6.4-5.1-11.5
		c0-5.1,2-9.4,6.1-12.9c4.1-3.5,9.6-5.2,16.6-5.2C469.3,649.4,477.2,653.9,480.8,662.9z"/>
	<path class="st0" d="M522.4,650.3l19.8,57.2h-15.9l-3.9-11.8h-20.4l-4,11.8h-13l20.3-57.2H522.4z M505.5,685.2h13.4l-6.6-20.1
		L505.5,685.2z"/>
	<path class="st0" d="M597.6,650.3v57.2H585l-24.7-38.6c0,1,0.1,1.6,0.1,1.9c0.1,1,0.2,1.8,0.2,2.5v34.2H549v-57.2h16l21.5,33.7
		c-0.2-1.7-0.3-2.9-0.3-3.8v-29.9H597.6z"/>
	<path class="st0" d="M650.3,650.3v11.3h-15.6v45.9h-15v-45.9h-15.7v-11.3H650.3z"/>
	<path class="st0" d="M683.3,650.3l19.8,57.2h-15.9l-3.9-11.8h-20.4l-4,11.8h-13l20.3-57.2H683.3z M666.4,685.2h13.4l-6.6-20.1
		L666.4,685.2z"/>
</g>
<g>
	<path class="st1" d="M245.5,730.2v32.5h-8.3v-13.4H226v13.4h-8.3v-32.5h8.3v12.7h11.2v-12.7H245.5z"/>
	<path class="st1" d="M266.2,763.2c-4.8,0-8.6-1.6-11.2-4.9c-2.6-3.3-4-7.3-4-11.9c0-4.7,1.3-8.7,4-11.9c2.7-3.2,6.5-4.8,11.5-4.8
		c5,0,8.8,1.7,11.4,5.1c2.6,3.4,3.8,7.3,3.8,11.6c0,4.7-1.3,8.7-3.9,11.9C275.1,761.6,271.3,763.2,266.2,763.2z M266.5,735.9
		c-4.4,0-6.6,3.5-6.6,10.5c0,7,2.2,10.6,6.6,10.6c4.3,0,6.4-3.5,6.4-10.5C272.9,739.5,270.7,735.9,266.5,735.9z"/>
	<path class="st1" d="M295.7,756.3H310v6.4h-22.8v-32.5h8.5V756.3z"/>
	<path class="st1" d="M314.4,730.2h11c4.5,0,7.8,0.6,10,1.7c2.2,1.1,4.2,2.9,5.9,5.3c1.7,2.4,2.6,5.5,2.6,9.2
		c0,4.7-1.5,8.5-4.6,11.7s-7.2,4.7-12.5,4.7h-12.4V730.2z M322.6,736.2v20.4h3.5c3.1,0,5.3-1,6.8-3.1s2.2-4.5,2.2-7.3
		c0-2-0.4-3.8-1.3-5.5c-0.8-1.7-1.9-2.8-3.2-3.5c-1.3-0.7-2.8-1-4.5-1H322.6z"/>
	<path class="st1" d="M357.7,730.2v32.5h-8.4v-32.5H357.7z"/>
	<path class="st1" d="M392.6,730.2v32.5h-7.2l-14.1-22c0,0.6,0,0.9,0.1,1.1c0.1,0.6,0.1,1,0.1,1.4v19.5h-6.6v-32.5h9.1l12.2,19.2
		c-0.1-1-0.2-1.7-0.2-2.2v-17H392.6z"/>
	<path class="st1" d="M427.8,745.3v17.4h-3.8c-0.3-1.2-0.7-2.5-1.2-3.7c-2.6,2.8-5.8,4.2-9.8,4.2c-4.7,0-8.3-1.5-10.9-4.5
		s-3.9-7-3.9-11.8c0-5.2,1.4-9.3,4.2-12.5c2.8-3.1,6.6-4.7,11.3-4.7c4,0,7.2,1,9.7,3c2.5,2,4,4.7,4.5,8.1l-8,1
		c-0.6-3.9-2.7-5.9-6.2-5.9c-2.3,0-4,0.9-5.2,2.8c-1.2,1.9-1.8,4.5-1.8,8c0,3.3,0.6,5.9,1.9,7.6c1.3,1.8,3.1,2.6,5.4,2.6
		c1.5,0,2.9-0.4,4-1.3c1.2-0.9,1.8-2.3,1.8-4.3H413v-6.1H427.8z"/>
	<path class="st1" d="M472.7,737.4l-7.2,2.2c-1-2.6-3-3.9-6.1-3.9c-3.3,0-5,1-5,2.9c0,0.8,0.3,1.4,0.9,2c0.6,0.5,2,1,4.2,1.4
		c3.7,0.7,6.3,1.3,8,2c1.7,0.7,3.1,1.8,4.3,3.3s1.7,3.2,1.7,5.1c0,2.9-1.2,5.5-3.7,7.6c-2.5,2.1-6.2,3.2-11.1,3.2
		c-3.7,0-6.8-0.8-9.4-2.3s-4.3-3.8-5.1-6.8l7.8-1.6c0.9,3,3.3,4.5,7.3,4.5c1.9,0,3.4-0.3,4.3-1c0.9-0.7,1.4-1.5,1.4-2.4
		c0-1-0.4-1.7-1.3-2.2c-0.9-0.5-2.5-1-5-1.5c-4.6-0.9-7.8-2-9.8-3.5s-2.9-3.7-2.9-6.5c0-2.9,1.2-5.3,3.5-7.3c2.3-2,5.5-3,9.5-3
		C466.2,729.7,470.7,732.3,472.7,737.4z"/>
	<path class="st1" d="M486.6,762.7h-8.1v-7.4h8.1V762.7z"/>
	<path class="st1" d="M510.8,730.2l11.3,32.5h-9l-2.2-6.7h-11.6l-2.3,6.7h-7.4l11.5-32.5H510.8z M501.1,750h7.6l-3.8-11.4L501.1,750
		z"/>
	<path class="st1" d="M534.5,762.7h-8.1v-7.4h8.1V762.7z"/>
	<path class="st1" d="M570,742.3l-8.8,0.5c-0.1-4.6-2.1-6.9-5.9-6.9c-4.4,0-6.6,3.5-6.6,10.6c0,4.1,0.6,6.8,1.8,8.3
		c1.2,1.5,2.9,2.2,5,2.2c3.5,0,5.6-2,6.4-6.1l8.2,0.5c-0.5,3.9-2.1,6.8-4.8,8.9c-2.7,2-6,3-9.8,3c-4.8,0-8.6-1.5-11.6-4.5
		c-3-3-4.5-7.1-4.5-12.3c0-4.9,1.4-8.9,4.3-12.1c2.9-3.1,6.8-4.7,11.8-4.7C564,729.7,568.9,733.9,570,742.3z"/>
	<path class="st1" d="M582.2,762.7h-8.1v-7.4h8.1V762.7z"/>
</g>
<g>
	<g>
		<circle class="st1" cx="398.2" cy="323" r="295"/>
		<circle class="st2" cx="398.2" cy="323" r="272"/>
		<circle class="st3" cx="398.2" cy="323" r="254"/>
	</g>
	<path class="st2" d="M142,259.5c29-7.5,75,0.5,106,31.5c25.8-13.8,82.4-39.5,158-38c67.1,1.4,117.5,23.6,143,37
		c6.7-6.7,16.1-14.4,28.4-20.7c31.7-16.4,62.5-13.4,75.6-11.3c26.4,177.8-43,298-254,327C215,568,116.6,437.9,142,259.5z"/>
	<g>
		<path class="st3" d="M604.4,363c-3.3-12.6-2.6-24.3,4.3-35.1c1.5-2.4,0.4-4.5-1.3-6.2c-1.9-1.8-3.6-0.5-5.3,0.7
			c-7.8,6-12.1,13.7-12.1,23.7c0,6.7,0.9,13.4,1.9,19.9c-0.6,0.3-0.7,0.4-0.8,0.4c-13.3-3-13.3-3-13.3-16.6c0-4.4-0.5-8.5-3.4-12
			c-3.4-4-5.9-3.7-7.8,1.2c-0.9,2.2-1.3,4.6-0.9,7.2c0.7,4.2,0.6,8.5,1,12.8c0.2,2.2-0.8,2.7-2.8,2.7c-6.6,0-9.3-1.9-10.6-8.4
			c-1.6-8.2-0.4-16.2,4.2-23.2c5.2-8,15.3-9.5,23-3.9c2.6,1.9,3.6,3.1,5-1.3c2.1-6.7,6.4-12.2,13.4-15c9-3.7,17.7-0.5,21.1,8.6
			c4.9,13.2,3.6,25.9-5.2,37.3C612.2,359.3,608.7,361.6,604.4,363z"/>
		<path class="st3" d="M212.5,328c2.5-1.2,4.4-3.3,7.2-4c12.1-2.9,19.5,2.1,22.7,16c1,4.2,1.3,8.4,0.5,12.7c-1.3,7-5.4,9.8-12.3,8.7
			c-1.8-0.3-1.5-1.4-1.4-2.5c0.3-4.3,0.6-8.5,1.2-12.8c0.2-1.5,0.6-2.9,0.1-4.3c-1-2.9-1.6-6.6-5.4-6.8c-3.5-0.2-3.9,3.4-5.2,5.7
			c-2.9,4.9-1.8,10.3-1.5,15.5c0.3,5.1-1.4,7.6-6.4,8.4c-2.5,0.4-4.9,1.1-7.9,1.8c1.5-7.1,1.9-13.8,2-20.5c0.1-9-3.5-16.3-10.2-22.1
			c-2-1.8-4.4-4.1-7.4-1.8c-2.9,2.2-1.1,4.9,0.1,7.1c5.5,9.7,6.3,19.8,4.1,30.6c-0.7,3.5-1.8,3.4-4.4,2c-9.7-5.4-16.4-20.3-14.4-33
			c0.6-4.2,0.9-8.5,3.1-12.4c5.1-9.2,16.5-10.7,25.4-3.3c2.4,2,4.6,4.3,6.1,7.1C209.8,322.6,211.1,325.3,212.5,328z"/>
		<path class="st3" d="M508,344.2c0-13.8,8.3-22.1,20.5-20.3c7.1,1,13.3,8,15.1,16.4c1.5,7.4,0.5,14.7-1.1,22
			c-0.7,3.1-3.1,4.1-5.9,4.2c-3.1,0-2.7-2.6-3.1-4.6c-0.8-4.2-1.1-8.4-0.2-12.7c0.9-4.2-3-11.4-6.7-13.6c-2-1.2-3.1-0.9-4.2,1.3
			c-1.5,3.1-2.1,6.1-1.2,9.5c1.3,5.3,1.1,10.8,1.6,16.2c0.2,2.6-0.6,2.9-3.1,2.2c-5.9-1.6-11-8.6-11.7-16.7
			C507.9,346.9,508,345.5,508,344.2z"/>
		<path class="st3" d="M273.5,365.3c0.1-6.4,0.5-12.6,1.6-18.6c1-5.2-0.7-11.6-3.8-11.5c-4.4,0.2-5.7,4.4-7.1,7.8
			c-1.1,2.8-1.9,5.8-1.1,9.1c1,3.7,0,7.5-0.8,11.2c-0.4,1.8-0.9,3.7-3.8,3.5c-2.4-0.2-4.3-0.8-4.7-3.3c-1.7-9.1-3-18.1-0.2-27.3
			c2.3-7.3,8.4-12.2,15.9-12.7c6.6-0.4,13.5,3.9,16.3,10.6c3.6,8.6,2.7,17-1.9,25C281.8,362.9,278.1,364.5,273.5,365.3z"/>
	</g>
	<g>
		<path class="st4" d="M632.7,272.4c13.2,0,13.3,0,15.9,11.8c0.9,4.3,1.3,8.7,1.9,13.1c0.3,2.3-0.7,3.5-3.2,2.6
			c-11.5-4.1-23.5-4.4-35.4-5.2c-11.8-0.8-22.9,1.7-31.7,10.6c-5.6,5.6-13.3,5.3-18.8-0.7c-2.3-2.5,0.6-3.6,1.8-4.6
			c7.5-6.4,15.8-11.9,24.7-16.1c10.7-5.1,21.8-9.1,33.7-11C625.7,272.3,629.7,272.6,632.7,272.4z"/>
		<path class="st4" d="M162.1,272.3c26.9,0.6,50.2,10.7,71,27.2c2.9,2.3,4.1,4.5-0.5,6.3c-1.1,0.4-1.9,1.2-3,1.8
			c-6.4,3.4-7.1,3.3-12.4-1.7c-10.3-9.7-22.5-12.3-36.4-10.9c-10.6,1.1-21.2,2-31.5,4.9c-2.6,0.7-2.9-0.6-2.7-2.5
			c0.9-7.5,1.2-15,3.1-22.4c0.5-2,1.7-2.7,3.6-2.6C156.2,272.4,159.2,272.3,162.1,272.3z"/>
		<path class="st4" d="M492.2,321.1c-1.1-6.3-1.4-12.6-3.3-18.8c-0.2-0.8-0.6-1.8-0.3-2.4c2.8-5.7,2.7-12,3.2-18.1
			c-0.6,5,3.3,5.4,6.5,6.2c14.8,3.7,28.8,9.3,41.8,17.2c3.8,2.3,7.5,4.7,11.1,7.2c1.4,1,3.4,2.2,1.2,4.2c-1.7,1.5-3.2,4.2-6.2,2.1
			c-3.1-2.2-6.2-4.2-9.5-6.1c-9.7-5.7-27.2-0.2-33.5,8.2C499,326.6,501,325.9,492.2,321.1z"/>
		<path class="st4" d="M304.8,286.3c4.5,11.7,0.5,23.2-1,34.8c-0.3,0.2-0.5,0.4-0.8,0.6c-6.5,3.6-6.8,3.9-11.4-1.7
			c-10.1-12.3-29.7-13.1-40.9-2.1c-3.1,3.1-4.8,1.3-6.8-0.8c-3.1-3.2,0.7-3.9,2.1-5c16.4-12.2,34.8-19.8,54.5-24.7
			C301.9,287,303.3,286.7,304.8,286.3z"/>
		<path class="st4" d="M651.4,332.3c0,9-1.6,18.8-2.6,28.6c-0.4,3.8-1.8,5.3-5.7,3.7c-2.9-1.2-5.9-1.9-9.1-1.9
			c-3.7-0.1-4.1-2-2.5-4.9c4.3-7.8,5.8-16.3,5.9-25.1c0-6.2-1.8-12-3.9-17.7c-0.4-1-1.5-2.1-0.7-3.2c1-1.2,2.4-0.2,3.7,0.1
			c0.3,0.1,0.6,0.2,0.9,0.3C650.5,316.3,651.6,317.9,651.4,332.3z"/>
		<path class="st4" d="M163.9,310.8c-7.2,16.6-7.1,31.9,0.9,47c1.8,3.3,2.1,4.8-2.5,4.9c-3.1,0.1-6.2,1-9.1,1.9
			c-3.4,1.1-4.6-0.1-5.1-3.4c-2-13-2.3-26.2-3-39.3c-0.1-1.6,0.5-3.2,2-4.3C151.9,314.1,157.3,312.2,163.9,310.8z"/>
	</g>
	<g>
		<path class="st5" d="M608.6,460.5c-0.3,0.1-0.5,0.3-0.6,0.6c-0.3,0.1-0.6,0.3-1,0.4c-0.7,3.5-2.3,4.2-5.3,2.1
			c-7.5-5.4-15.5-10.1-23.3-15c-11.3-7-22.5-14.3-34.1-21c-4.7-2.7-9.9-4.9-13.6-9.2c-9.5-5.1-18.9-10.3-28.4-15.2
			c-6.6-3.4-13.5-6.5-20.5-10c2.3-2.4,3-5.8,8.8-3.6c19.6,7.5,37.8,17.6,56,27.9c20.6,11.6,40.6,24.2,60.4,37.2
			C609.9,456.4,610.1,458,608.6,460.5z"/>
		<path class="st5" d="M286.7,380.5C286.7,380.5,286.7,380.5,286.7,380.5L286.7,380.5c-3.8,3.8-9.1,4.5-13.7,6.6
			c-14,6.6-27.7,13.6-41,21.6c-15.1,9-30.7,17.4-44.8,28.2c-1.9,1.4-4.2,2.3-6.1,3.9c-4.6,3.8-5.3,3.6-7.5-2.2
			c-0.2-0.6-0.5-1.2-0.8-1.8c-3.3-2.9-2.7-5.2,0.7-7.8c15.6-11.7,32-22.1,49.4-30.9c9.6-4.9,18.9-10.6,29-14.3
			c11.1-4.1,22.3-9.1,34.8-7.3c1,0.5,2,1,3,1.4C288.6,378.9,287.6,379.7,286.7,380.5z"/>
		<path class="st5" d="M622,437.8c-1.5,6.7-2.8,7.5-8.2,4.1c-12.3-7.6-24.4-15.6-36.9-22.9c-17.8-10.4-35.8-20.6-54-30.3
			c-4.8-2.6-10.2-4.3-14.8-7.4c-1.9-1.4-5-0.8-6.4-4.2c7-1.2,13.8-1.5,20.5,0.3c17.3,4.7,33.1,12.9,48.9,21.2
			c14.5,7.7,28.3,16.7,42.2,25.4c2.6,1.6,5.1,3.6,7.6,5.4C625.7,432.7,625.7,433.3,622,437.8z"/>
		<path class="st5" d="M449.9,564.7c-0.8,2.7-4.9,1.5-7.6,1.7c-1.1,0.1-2.3,0.1-3.3,0.9c-2.2,1.6-3.3,0.4-4.7-1.4
			c-6.9-9-14.3-17.6-25.9-20.6c-6.8-1.8-13.9-2.2-20.8,0.1c-2.1,0.7-4,1.2-6.1,1.2c-7.6,4.8-14.6,10.2-19.3,17.9
			c-1.4,2.2-3.5,2.8-5.4,2.5c-2.9-0.6-6.2,0.7-8.8-1.7c-4.1,0.2-2.5-2-1.4-3.6c6.5-8.8,13.1-17.5,21.3-24.9
			c6.1-5.5,13-9.6,20.9-12.3c9.8-3.3,18.5-1,26.7,4c12.1,7.3,21.1,18,29.2,29.3C447.2,559.5,450.7,561.9,449.9,564.7z"/>
		<path class="st5" d="M634.8,409.1c0.2,2-1.4,3.3-2.1,4.9c-2.5,0.4-1.9,2.3-2,3.9c-0.6,0-1.3,0-1.9,0c-2-1.2-4.8-1.4-6-3.9
			c-9.1-5.7-18.1-11.4-27.3-16.9c-7.4-4.4-14.9-8.5-22.5-12.7c-0.9-0.5-1.7-0.9-2-1.9c-0.3,0-0.5,0-0.8-0.1c-1-1.2-2.4-1.9-4-1.9
			c-0.7-1.9-2.2-2.2-4-1.9l0,0c-3.9-0.4-7.1-2.3-10.1-5.2c5.4,1,10.9-1.3,16.2,1c1.3,0.1,2.7,0.2,4,0.3c0.8,0.9,1.8,0.8,2.9,0.8
			l0.1,0c0.8,1.1,2,1,3.1,0.9c11.7,1.7,21.9,7.3,32,12.9c7.9,4.3,15.5,9.1,23,14.1C636.3,405.2,636.9,406.6,634.8,409.1z"/>
		<path class="st5" d="M242.5,374.1c0,0.5-0.7,1.3-1.1,1.4c-6.6,0.8-11.6,5.7-18.1,6.8l-0.3,0.2l-0.4,0c-3.1,2.8-7.4,3.3-10.9,5.3
			c-14.5,8.1-28.4,17.1-42,26.6c-6.3,4.4-6.3,4.3-8.3-3.6c-0.2-0.2-0.4-0.4-0.5-0.7c-0.3-0.3-0.5-0.7-0.8-1.1
			c-1.1-2.3-1-4.2,1.3-5.9c15.7-11.5,31.8-22.3,51.2-26.7c3.5-0.8,6.8-2.5,10.5-2.1c2.2-3.1,5.4-1.3,8.2-1.6c3.1-0.4,6.2-0.1,9.3,0
			C241.5,372.8,242.5,373.1,242.5,374.1z"/>
		<path class="st5" d="M642.6,385.3c0.2,1.8,0.3,3.7-1.6,4.6c-1.5,0.8-2.8,0.2-3.4-1.5c-0.3,0-0.6-0.1-0.8-0.3
			c-0.1-1.4-0.9-1.9-2.2-1.7c-6.8-3.4-13.6-6.8-20.3-10.2c-0.7-0.3-1.2-0.8-1-1.5c0.3-1.1,1.4-1.4,2.3-1.6c4.6-1,9.2,0.2,13.7,0.7
			c3.4,0.4,6.8,1,10,2.3C645.3,378.3,646.1,380.1,642.6,385.3z"/>
		<path class="st5" d="M179.4,374.7c0.1,1.6-1.6,1.2-2.6,1.6c-7.5,3.8-14.7,8.3-21.8,13.6c-5.6-11.5-4.5-13.7,7.6-15.4
			c4.5-0.6,9-1.9,13.6-1.6C177.6,373,179.3,373,179.4,374.7z"/>
		<path class="st5" d="M417.1,570c-11.8,0.5-23.7,0.5-35.5,0c0.9-1.3-3.9-2.4-0.1-3.7c0-1,0.1-2,0.1-2.9l0,0c1.8-0.3,3.5-0.7,4-2.9
			c13.6-8.6,25-2,32.1,6.6C418.5,568,420.8,569.7,417.1,570z"/>
		<path class="st5" d="M508.2,545.6c-4.1,3-9.3,3.6-13.6,6.5c-1.8,1.2-3.5-0.1-5-1.8c-7.9-8.8-15.9-17.4-24-26
			c-10.5-11.2-21.2-22.2-31.8-33.4c-0.4-0.5-0.6-1.1-0.9-1.7c-3.2-0.8-4.4-3.5-6.1-5.9c-7.2-5.2-12.8-11.9-19.2-18
			c-2.4-2.4,0.3-3.5,2.5-4c3.4-4.6,6.8-2.8,10.1,0.1c11.6,10,23.3,19.9,34.7,30.3c16.7,15.1,33.1,30.6,49.6,45.9
			c1.7,1.5,3.1,3.3,4.8,4.9C511.3,544.4,510.3,545.2,508.2,545.6z"/>
		<path class="st5" d="M385.8,467.2c-4.8,3.9-9,8.5-13.4,12.8c-14.2,13.5-27.7,27.7-41.2,41.8c-8.9,9.3-17.6,18.8-26.5,28.1
			c-1.8,1.9-3.4,2.6-5.8,0.8c-3.5-2.6-8.4-2.6-11.6-5.9c-3.7-0.2-4-1.3-1.3-3.8c14-12.8,27.8-25.8,41.9-38.6
			c15.5-14,31.4-27.8,47-41.7c3-2.7,5.8-4.2,8.8,0c0.4,0.2,0.7,0.4,1.1,0.6c0,0,0,0,0,0C388.6,462.7,389.2,464.5,385.8,467.2z"/>
		<path class="st5" d="M318,414.1c-0.6,0.2-1.1,0.6-1.6,0.9c-1.3,1.7-3.5,2.5-4,4.8c-11,5.7-21.4,12.4-31.8,19
			c-6,3.8-11.7,8-17.5,12.1c-17,12-33.6,24.5-49.6,37.8c-2.2,1.9-4,1.9-5.6-0.4c-2-2.8-5.2-4.6-6.2-8.1c-3.4-1.7-4-3.4-0.4-5.8
			c16.5-11.2,33.8-21.2,50.7-31.7c12.9-8,25.8-16,39-23.5c7.2-4.1,14.2-8.6,22.2-11.1c1.3,0,2.6,0,3.9,0c2.6-0.1,4.6,1.3,5,3.6
			C322.5,414.8,319.6,413.6,318,414.1z"/>
		<path class="st5" d="M310,394.3c-2.7,1.2-5.3,2.5-8,3.7c-5.7,1.5-11.2,3.5-15.5,7.8c-1,1-2.3,1.5-3.7,1.4
			c-0.4,0.3-0.8,0.6-1.2,0.9l0,0c-4.1,0.6-7.6,2.1-9.9,5.8c-0.2,0.1-0.5,0.2-0.8,0.2c-1.4,3.1-4.8,3.8-7.2,5.3
			c-13.5,8.5-27.1,16.8-40.9,24.8c-9,5.2-17.8,10.8-26.4,16.6c-5.8,3.9-6,3.6-10.7-2.3c-2.7-3.7,1.1-4.6,2.9-5.9
			c14-9.7,28.3-18.8,42.9-27.5c19.8-11.8,40.2-22.5,61.4-31.6c3.8-1.6,7.6-3,11.3-4.7c3.8-1.7,5.5,0.8,7.2,3.2
			C312.6,393.6,311.1,393.9,310,394.3z"/>
		<path class="st5" d="M342.1,431.9c-5.7,4.5-11,9.5-17.1,13.2c-3.3,2-8.3,0.1-12.3,2.3c-1.9,1-3.8,2.7-6.3,2.3
			c-4.3,3.7-7.7,8.1-10.9,12.7c-0.8,1.1-2.3,2.4-3.5,2.5c-6,0.2-10.5,4.1-15.7,6.3c-1.8,2.9-3.5,6-7.7,5.8c-2.5,3.6-5.4,6.9-9.2,9.2
			c-2.1,8.7-6.7,12.7-14.4,12.8l0,0c-3-0.3-4.9,1-5.9,3.8c-0.4,0.3-0.8,0.6-1.1,0.9c-7.4,6.8-7.8,6.8-14.7-0.7
			c-3.6-1.3-2-2.8-0.1-4.3c6.9-5.5,13.7-11.2,20.7-16.6c18.2-13.9,36.9-27,56.2-39.3c10.1-6.4,20.7-11.8,31.8-16.4
			c4-1.7,10,0.6,11.6,4.4C343.7,431.5,342.7,431.7,342.1,431.9z"/>
		<path class="st5" d="M570,498.6c-11.9-9.4-23.7-18.9-36-27.9c-22.3-16.2-44.5-32.4-69.6-44.1c-4.2-2-7.9-2.2-10.5,2.4
			c-2.9,0.4-4.2,2.1-1.4,3.9c5.1,3.2,10,6.4,14.5,10.4c2,1.8,4.3,2.5,7.2,2.5c8.9-0.2,16.1,3.6,21.1,11c3.1,4.5,6.3,8.7,12.4,9.1
			c0.8,0,1.5,0.7,2.2,1c11.9,5.2,20.7,13.8,28,24.3c1.4,0.5,2.2-2.7,3.5-0.8c1,1.5-0.1,2.6-1.9,2.9c0.2,0.6,0.3,1.2,0.5,1.8
			c6.2,4.5,14.2,6.1,19.6,11.9c0.1,0.2,0.3,0.3,0.5,0.2c1.4,3.7,3.2,4.6,6.1,1.2c1-1.2,2.7-1.8,3.3-3.4l0,0c0-0.6,0-1.2,0.1-1.8h2
			C573.7,500.6,571.5,499.8,570,498.6z M554.2,496.3c-0.1-0.2,0.2-0.5,0.3-0.8c0.3,0.1,0.7,0.2,0.7,0.3c0.1,0.2-0.2,0.5-0.3,0.8
			C554.6,496.6,554.2,496.5,554.2,496.3z"/>
		<path class="st5" d="M475.1,554.2c-6-6.2-12.1-12.5-18.1-18.7c-3.4-3.6-6.7-7.2-10.1-10.7c-15.1-16-30.5-31.9-46.8-46.7
			c-2.3-2-3.6-2.4-5.9,0c-6.3,6.4-12.9,12.5-19.2,18.8c-14.7,14.5-29.3,29-43,44.4c-5.2,5.3-10.4,10.5-16.7,16.9
			c4.6-0.1,7.3,1.1,10.1,2c2.9,0.9,6.2,1,8-2.1c4-7,9-13.2,14.5-18.9c3.7-3.7,5.7-8.8,9.7-12.1c6-5,12.6-9.1,19.2-13.2
			c0.3,0,0.6-0.1,0.9-0.2c4.7-1.8,9.3-4.2,14.3-4.7c12.9-1.5,24.3,2.8,34.5,10.2c14.5,10.5,26.2,23.7,36,38.5
			c2.6,3.9,5.1,3.9,8.6,2.5c1-0.4,2-1.4,3-1.5C479,558.2,477,556.2,475.1,554.2z M328.3,548.6c-0.2,1.1-0.8,1.9-2,2
			c-0.2,0.7-0.3,1.5-1.4,1.3c-0.2,0-0.4-0.7-0.3-0.7c0.4-0.3,0.9-0.6,1.4-0.9c0.1-1.2,0.8-1.8,2-2c0.1-0.2,0.2-0.5,0.3-0.7
			c0.2-0.5,0.5-0.9,0.8-1.2c0.7-0.9,1.7-1.6,3-2l0.2,0.2C331.8,546.9,330.5,548.2,328.3,548.6z"/>
		<path class="st5" d="M321.2,489.2c-4.3,4-8.5,7.9-12.8,11.9c-1.2,0-2,0.5-2.1,1.8l-0.1,0.1c-2.1,0.4-3.4,1.6-3.8,3.8
			c-3.2,4.5-6.1,3.8-9.3-0.2c-5-6.4-11.7-9.5-19.8-9.6c-0.8,0-1.6,0-2.1-0.9c-1.5-0.5-1.1-1.6-0.4-2.3c9.5-8.8,19.3-17,33.6-16.5
			c7.4,0.2,12.5,4.4,17.8,8.6C323.6,487,323.1,488.5,321.2,489.2z"/>
		<path class="st5" d="M595.7,478.6c-0.8-0.1-1.6-0.1-2.4-0.2c-0.2,0.3-0.4,0.7-0.7,1c-0.7,0.9-1.7,1.6-3.3,1.5
			c-0.2,0-0.5,0-0.8-0.1c-0.2-0.1-0.2,0-0.1,0.1c0,0,0.1,0.1,0.1,0.1c0.6,1.4,0.8,2.6,0.8,3.7c0,0.2,0,0.4,0,0.5c-1.4,0-2,0.6-2,2
			c-2.7-2.3-5.4-2.2-8.1,0c-0.7-3.6-5-4.5-5.8-8h0c0,0,0,0,0,0c0,0,0,0,0,0v0c-1.4,0-2.8,0.1-4.2,0.1c-9.8-7.2-19.5-14.8-29.5-21.7
			c-13.3-9.2-26.3-18.9-40.1-27.4c-9.3-5.7-19.1-10.2-28.3-16.1c-0.6-0.2-1.1-0.4-1.7-0.6c-0.1-0.5-0.1-1.1-0.2-1.6l0.1-0.1
			c0.3-0.4,0.6-0.8,0.9-1.2c2.4-3.7,4.7-5.7,9.9-3.4c17.3,7.6,33.1,17.9,49.2,27.6c12.2,7.3,24.4,14.6,36.2,22.5
			c9.2,6.1,19.2,11.1,27.9,17.9C594.8,476.1,596.8,476.4,595.7,478.6z"/>
		<path class="st5" d="M285.9,521.9c-4.4,4.6-9,9-13.4,13.6c-0.8,0.8-1.8,1.3-2.6,0.8c-5-3.2-10.8-5.1-14.9-9.6
			c-4.2-0.4-6.9-3.3-9.7-6c-0.2-0.4-1.6,0.5-1-0.9c-1-1.2-0.4-1.9,0.5-2.9c9.2-10,30.1-11.9,40-0.2
			C287.5,517.9,288.1,519.7,285.9,521.9z"/>
		<path class="st5" d="M361.8,453.4c-3.3,2.7-6.6,5.4-9.9,8c-2.7-0.5-4.2,1.3-5.8,2.9c-4.6,4.3-8.4,9.6-13.9,13l0,0
			c0-1.3,0-2.6,0-3.9c0.6-0.1,1.3-0.1,1.4-0.9c0-0.2-0.4-0.5-0.5-0.5c-0.8,0.1-0.8,0.8-0.9,1.4c-3-0.6-4.2-5.1-8-3.9
			c-0.8-0.1-1.6-0.1-1.8-1.1c-3.8-1.3-7.4-3.3-11.9-3.2c4.1-5.5,7.4-7,12.9-5.3c2.8,0.9,4.6,0.3,6.7-1.4c5.7-4.9,11.9-9.1,18.2-13.2
			c3.9-2.5,7.3-4.9,10.9,0.1c0.3-0.1,0.6,0,0.8,0.3C361.3,448.1,362.3,450.5,361.8,453.4z"/>
		<path class="st5" d="M523.6,495.1c-0.8,1.7-2.3,0.9-3.6,1c-8.3,2.2-15.8,5.7-21.7,12.2c-1.8,1.9-3.6,1.7-5.5-0.2
			c-6.8-6.6-13.7-13.1-20.5-19.7c-0.8-4.5,3-5.5,5.7-7c16.7-9.6,33.4-1.2,44,11.7C522.1,494.2,522.4,495,523.6,495.1z"/>
		<path class="st5" d="M481.3,465.5c-1.5,0.5-3.3-0.1-4.8,0.9c-1.1,0-2.3-0.1-3,1.1c-0.3,0.3-0.6,0.5-1,0.8c-3,3.2-7.3,4.8-10,8.3
			c-1.2,1.5-2.4,1.4-3.8,0.2c-9.5-8.4-19-16.9-28.5-25.2c-1.7-1.5-1.9-2.9,0.2-3.7c1.9-0.6,3-2.6,5.2-2.5l0.1,0
			c0.3-0.4,0.7-0.8,1-1.2c2.5-3.3,5.5-1.5,7.8-0.1c6.8,4.3,13.9,8.3,19.7,14c2.5,2.5,4.9,3.7,8.6,1.5c4.1-2.4,7,1.1,9.8,3.5
			C484.1,464.5,482.3,465.2,481.3,465.5z"/>
		<path class="st5" d="M550,521c-5.4,4.7-11.8,7.7-17.6,11.6c-0.4,0.3-0.9,0.4-1.3,0.6c-7,4-7,4-12.6-1.6c-3.7-3.6-7.4-7.2-11-10.9
			c-1.1-2.2,0.4-3.3,1.8-4.5c11.6-9.7,26.4-10.3,38.2-1.2c1.1,0.9,2.3,1.8,3.3,2.8C552,519.2,552.3,520.5,550,521z"/>
	</g>
	<g>
		<path class="st6" d="M305.6,271.7c4.5-19.9,13.6-36.8,30.6-48.7c1-0.7,1.6-1.6,1.7-2.8c0.9-11.8,8.8-18.5,18.1-24
			c3.5-2.1,7.1-3.9,10.7-5.9c7.7-2,15.2-4.8,23.1-5.9c2.2-0.3,1.5-1.6,0.8-2.8c-5.6-11.5-13.5-20.9-24.8-27.1
			c-0.4-0.2-0.8-0.3-1.1-0.5c0.1,0.4,0.1,0.8,0.2,1.2c3.9,6.3,8.5,12.3,11.2,20.3c-16.9-5.3-25.9-16.2-29.5-32.3
			c-1.1-5.1,0.6-5.7,4.9-5.4c10.3,0.6,19.6,3.8,27.9,10c8.2,6,13.8,14.2,18.8,23.1c2.9-4.4,5.3-8.5,8.1-12.3
			c10.1-13.6,23.8-20.2,40.6-20.6c1.7,0,3.5-0.6,3.4,2.6c-0.8,15.9-13.8,31.2-29.8,34.1c2.7-7.8,7.8-13.9,12.5-20.8
			c-9.4,3.6-25.3,20.5-27.5,28.5c-0.5,1.7,0.2,2,1.6,2.1c7.8,0.9,15.2,3.8,22.7,5.8c7.2,4.1,15,7.4,20.8,13.7
			c4.2,4.5,8.2,9.1,8.1,15.8c0,1.9,1.4,2.8,2.7,3.8c15.1,11.9,24.6,27.5,29.4,46c0.5,3.7,0.9,7.5,1.4,11.2
			c-0.5,6.1-0.4,12.3-3.2,18.1c-0.3,0.6,0.1,1.6,0.3,2.4c1.8,6.1,2.2,12.5,3.3,18.8c-1.3,25.4-11.6,46.9-28.9,65.3
			c-1.1,1.1-1.7,2.2-1.6,3.9c0.5,8-2.4,15.3-7.6,20.8c-11.5,12.4-23.2,24.7-38.1,33.3c-12.4,7.1-24.3,7-36.6-0.4
			c-13.8-8.4-25.2-19.6-36.1-31.2c-5.9-6.3-10-13.9-8.7-23.2c0.3-2.1-1.4-2.8-2.5-4c-13.1-14.1-22.6-30.3-26.4-49.3
			c-1-5-1.3-10.1-1.9-15.1c1.5-11.6,5.5-23,1-34.8C305.2,280.7,305.4,276.2,305.6,271.7z M344,361.5l0,0.1
			c11.3-12.5,25.8-19.5,42.1-22.2c6.2-1.1,7.1-3.5,6.2-8.5c0-0.7,0-1.3,0-2c0-1.6,0-3.3,0-4.9c0-4.3,0.1-8.6,0.1-12.9
			c0.8-2.2,1.1-3.8-2.3-3.5c-22.6,2-46,17-52.4,41.7c-1.8,7.1-2,14.3,0.4,22.1c1.9-3.3,3.4-5.8,4.8-8.3
			C343.3,362.5,343.6,362,344,361.5z M350.4,398.2c1.8,4.1,4.4,7.6,8.3,10.6c3.8-15.8,13.7-25.4,28.9-29.4c4.3-1.1,5.6-3.1,4.7-7.1
			c0-5.6,0-11.2,0-16.8c0.6-2,1.3-4.2-2.2-3.7c-15.2,2.5-29,8.2-37.8,21.5c-4.6,7-7.1,15.2-2.5,23.7
			C350,397.5,350.2,397.9,350.4,398.2z M457,278.2c-0.4-0.5-0.8-1-1.2-1.5c-13.5-11.5-29.5-16.5-46.8-18.2c-4.1-0.4-5.9,0.7-4.7,5
			c0,6.9,0.1,13.9,0.1,20.8c-0.4,8.4-0.4,8.4,8,10.1c1.1,0.2,2.2,0.5,3.3,0.8c24.1,6.3,43.2,19,53,43c1.8,4.3,2.8,8.9,4.3,13.8
			c1.1-3.5,2.2-6.6,3.1-9.7c7.4-25.3,0.3-49.4-18.9-64.1L457,278.2z M347.9,243.7c-1.1-1.6-2.2-3.2-3.2-4.9c-2.2-3.8-4.1-3.3-7-0.4
			c-5.9,6.1-10.8,12.8-14.2,20.5c-3.1,7-5.2,14.4-4.9,22.9c2.8-3.5,5.1-6.5,7.4-9.4c10.6-9.8,22.6-17.3,36.3-22.3
			C356.6,249.6,353.2,244.6,347.9,243.7z M392.3,410.9c0.1-5.2,0-10.5,0.2-15.7c0.1-3-0.9-3.2-3.4-2.4c-7.5,2.3-13,7-16.2,14
			c-3.7,8.2-2.9,12.5,2.6,17.6c3.6,4.4,8.5,6.5,13.6,8.5c2.6,1,3.5,0.7,3.4-2.3C392.3,424,392.3,417.5,392.3,410.9z M404.3,311
			c0,5,0,9.9,0,14.9c0,2.6,0.1,5.3-0.2,7.9c-0.3,3.4,0.8,4.5,4.4,5.2c20,3.9,37.8,11.7,48.7,30.1c2.8-1.4,3.5-3.7,3.4-6.6
			c-0.5-20.8-10.3-36-27.9-46.6c-7.7-4.9-16.2-7.4-25.1-8.8C404.1,306.6,403.7,308.3,404.3,311z M431.9,361.6
			c-7.4-5.6-16-8.1-25-9.6c-2.2-0.4-2.9,0.4-2.8,2.6c0.2,5.6,0.2,11.2,0.3,16.8c-1.2,4.9,0.5,7.2,5.8,8.1c6.6,1.1,12.2,4.8,17,9.5
			c5.7,5.5,9.1,12.2,11,20.4c6.6-6.7,12.1-13.7,11.1-22.8C448,375.5,441.6,367.2,431.9,361.6z M434.2,207.4c0,0-0.4-0.2-0.4-0.2
			c-0.8-0.6-1.5-1.3-2.3-1.8c-19-10.1-38.6-10.9-58.7-3.8c-7.1,2.5-14,5.8-18.2,12.6c-5.6,7.4-3.7,15.1,5,20.6
			c0.6,0.4,1.2,0.8,1.8,1.2c2.9,1.9,6,3,9.3,4c14.1,4,28.5,4.4,42.9,2.5c10-1.3,19.8-3.7,27.3-11.2c5.9-6,6.2-11.6,0.6-17.8
			c-2.1-2.3-4.2-4.6-7.2-5.9L434.2,207.4z M326.2,342.3c3-6.7,5.5-13.5,10.1-19.4c12.2-15.9,29-24.1,48.1-28.2
			c8.4-1.8,8.3-1.9,7.9-10.4c0.5-6.6,0.4-13.2,0.1-19.8c0.5-6.6,1.6-6.4-5.5-5.8c-7,0.6-13.9,1.9-20.7,4.1
			c-32,10.5-57.4,39.9-45,80.1c0.6,2,0.4,5.7,3.2,5.3C326.6,348,326.1,344.6,326.2,342.3z M478.8,281.9
			c-1.2-19.2-9.5-33.4-22.1-45.5c-1.4-1.4-2.2-0.6-3.1,0.7c-3.8,5.2-9.2,8.3-14.8,11.2c-0.9,0.5-2.4,0.4-2.1,2.1
			c0.2,1.2,1.1,1.6,2,1.9C454.2,258.4,467.8,267.3,478.8,281.9z M404.1,433.7c6.9-1.6,12.1-4.9,17-9c3.6-3,5.5-6.7,5-11.6
			c-1-9.4-11.2-18.9-19.2-21.1c-2.3-0.7-2.8,0.1-2.8,2.3C404.1,407.3,404.1,420.3,404.1,433.7z"/>
		<path class="st5" d="M470.3,414.9c0.1,0.5,0.1,1.1,0.2,1.6C469.1,416.1,469.3,415.5,470.3,414.9z"/>
		<path class="st5" d="M437.7,447.3c-0.3,0.4-0.6,0.8-1,1.2C437.1,448,437.4,447.7,437.7,447.3z"/>
		<path class="st5" d="M471.3,413.5c-0.3,0.4-0.6,0.8-0.9,1.2C470.7,414.4,471,413.9,471.3,413.5z"/>
		<path class="st2" d="M429.8,190.3c-7.6-2-14.9-4.9-22.7-5.8c-1.4-0.2-2.1-0.4-1.6-2.1c2.2-8,18.2-24.9,27.5-28.5
			c-4.7,6.9-9.8,13-12.5,20.8c16-2.9,29-18.2,29.8-34.1c0.2-3.2-1.6-2.6-3.4-2.6c-16.8,0.4-30.5,7-40.6,20.6
			c-2.8,3.8-5.2,7.9-8.1,12.3c-5-9-10.6-17.1-18.8-23.1c-8.3-6.2-17.6-9.3-27.9-10c-4.3-0.3-6.1,0.3-4.9,5.4
			c3.6,16.1,12.6,27,29.5,32.3c-2.6-8-7.3-14-11.2-20.3c0.3-0.3,0.6-0.5,1-0.8c11.3,6.2,19.2,15.6,24.8,27.1
			c0.6,1.3,1.4,2.5-0.8,2.8c-7.9,1.1-15.4,3.8-23.1,5.9c-0.3-2.3-2.4-2.5-3.9-3.3c-20.8-10.2-30.8-27.2-33-49.9
			c-1-10.6-2.3-10.7,11.3-13c20.4-3.5,38.5,1.2,53.1,16.3c3.1,3.3,5.5,2.6,8.3-0.1c16.1-15.4,35.4-19.7,56.9-16
			c7.6,1.3,8.8,2.5,8,10.2c-1.6,15.3-6,29.4-17.6,40.7c-5.1,5-10.4,9.3-16.9,12.2C431.5,188,429.8,188.3,429.8,190.3z"/>
		<path class="st7" d="M361.4,236c-0.6-0.4-1.2-0.8-1.8-1.2c-0.3-0.9-0.4-2-1-2.7c-4.2-5-7.6-10.1-4-16.9c0.1-0.3,0-0.6,0-1
			c4.3-6.8,11.1-10.1,18.2-12.6c20-7.1,39.7-6.3,58.7,3.8c0.8,0.4,1.5,1.2,2.3,1.8c-0.1,0.2-0.1,0.4-0.2,0.6
			c0.2-0.1,0.4-0.3,0.6-0.4c0,0,0.3,0.2,0.3,0.2c2.7,10.1-1.7,17.8-11.5,22.6c-7.5,3.6-15.5,2.7-23.2,4.5
			c-10.3,2.3-20.8-1.7-31.3-1.7c-1.3,0-2.1-2.2-3.4-1c-1.6,1.5,1.1,2.8,0.7,4.4C364.3,236.2,362.9,236.1,361.4,236z"/>
		<path class="st5" d="M404.3,284.3c0-6.9-0.1-13.9-0.1-20.8c3.5,0.7,7,1.7,10.6,2.2c6.1,0.8,12.2,1.9,18,4.7
			c8.1,3.9,16.1,8.3,24.8,11c1.8,2.2,2.9,4.7,4.1,7.2c1.7,3.7,0.9,8,2.7,11.4c2.3,4.3,0.6,8.1-0.1,12c-0.4,2.4-2.6,2.8-4.6,1.1
			c-1.8-1.5-3.2-3.5-5.1-4.6c-6.9-3.7-13.3-8.1-19.9-12.4c-5.8-3.8-12.3-6.3-19.2-8C411.7,287.2,407.4,287.3,404.3,284.3z"/>
		<path class="st5" d="M392.4,264.5c0.3,6.6,0.4,13.2-0.1,19.8c-10.3,3.1-21.4,3.7-30.8,10c-6.6,4.4-14.2,7.1-20.2,12.7
			c-4.9,4.5-9.5,9.3-14.1,14c0.3-2.1,0.6-4.2,1-6.3c1.2-7.4,2.7-14.8,6.8-21.3c5.8-9.3,13.8-15.6,23.8-20.2
			C369.5,268.3,380.3,264.2,392.4,264.5z"/>
		<path class="st8" d="M404.3,284.3c3.1,2.9,7.4,2.8,11.2,3.8c6.9,1.7,13.3,4.2,19.2,8c6.6,4.2,13,8.7,19.9,12.4
			c2,1,3.4,3.1,5.1,4.6c2,1.6,4.2,1.3,4.6-1.1c0.7-3.9,2.3-7.7,0.1-12c-1.8-3.3-0.9-7.6-2.7-11.4c-1.2-2.5-2.3-5.1-4.1-7.2
			c-0.4-1-1.1-2-0.5-3.2c19.2,14.8,26.3,38.8,18.9,64.1c-0.9,3.1-2,6.2-3.1,9.7c-1.5-4.8-2.5-9.4-4.3-13.8
			c-9.8-23.9-28.8-36.6-53-43c-1.1-0.3-2.2-0.6-3.3-0.8C403.9,292.8,403.9,292.8,404.3,284.3z"/>
		<path class="st8" d="M432.7,315.9c17.6,10.5,27.5,25.7,27.9,46.6c0.1,2.8-0.6,5.2-3.4,6.6c-10.9-18.5-28.7-26.3-48.7-30.1
			c-3.6-0.7-4.8-1.8-4.4-5.2c0.3-2.6,0.1-5.2,0.2-7.9c3.3,0.4,0.6,4.3,3.2,5.4c0.9-1.1,0.6-3.7,3-3.2c2.1,0.4,1.5,2.2,1.7,3.6
			c0.2,1.4,0.9,2.2,2.2,2.1c2.8-0.2,4.9,1.6,7.4,2.3c3.4,1,7.5,2.2,9.8-1.5c3.3-5.1,4.8-10.7,1.2-16.5
			C432.7,317.3,431.9,316.7,432.7,315.9z"/>
		<path class="st5" d="M392.3,328.8c0,0.7,0,1.3,0,2c-4.3,0.5-8.2,2.5-12.3,3.9c-14.2,4.9-26.8,12.6-36.2,24.8c-1-0.3-2.9,0.5-2-2
			c1.2-3.5,1.9-7.2,3.1-10.7c2.2-6.8,3.7-14.2,9.5-19c11-9.2,23.6-15.1,38-16.8c0,4.3-0.1,8.6-0.1,12.9
			C389.2,325.5,389.3,327.2,392.3,328.8z"/>
		<path class="st7" d="M392.4,264.5c-12.1-0.3-22.8,3.8-33.7,8.7c-10,4.5-18.1,10.9-23.8,20.2c-4.1,6.5-5.5,13.9-6.8,21.3
			c-0.3,2.1-0.7,4.2-1,6.3c0,0.9,0,1.9,0,2.8c0,0.7,0,1.4,0,2l-0.1,0.1c-0.4,0.1-1.1,0.1-1.2,0.4c-0.3,0.9,0.5,1.2,1.1,1.6
			c0,1.3,0,2.6,0,3.9c-2.7,1.3-2.7,2.6-0.1,4c-0.4,2.2-1.3,4.3-0.7,6.5c-0.1,2.2,0.4,5.6-1.9,5.9c-2.7,0.4-2.6-3.3-3.2-5.3
			c-12.4-40.1,13-69.6,45-80.1c6.7-2.2,13.7-3.5,20.7-4.1C394,258.1,392.9,257.9,392.4,264.5z"/>
		<path class="st8" d="M361.4,236c1.4,0.1,2.9,0.2,4.4,0.3c0.4-1.6-2.3-2.9-0.7-4.4c1.3-1.2,2.1,1,3.4,1c10.5,0,20.9,4.1,31.3,1.7
			c7.7-1.7,15.7-0.9,23.2-4.5c9.8-4.8,14.2-12.5,11.5-22.6c2.9,1.3,5.1,3.6,7.2,5.9c5.5,6.2,5.3,11.8-0.6,17.8
			c-7.5,7.5-17.4,9.9-27.3,11.2c-14.4,1.9-28.8,1.5-42.9-2.5C367.5,239,364.3,237.9,361.4,236z"/>
		<path class="st5" d="M404.3,371.4c-0.1-5.6-0.1-11.2-0.3-16.8c-0.1-2.2,0.6-3,2.8-2.6c9,1.5,17.6,4,25,9.6
			c5.2,5.3,7.9,11,3.9,18.3c-1.5,2.7-3.2,5-5.9,6.2c-2.4,1.1-3.4-2.1-4.9-2.4c-3.1-0.7-4.6-3.5-7.4-4.6
			C412.9,377.2,407.2,376.4,404.3,371.4z"/>
		<path class="st5" d="M392.3,355.5c0,5.6,0,11.2,0,16.8c-4.8,2.2-9.4,4.7-14.3,6.5c-6.5,2.4-10.8,8.7-17.9,10
			c-0.5,0.1-1.1,0.9-1.2,1.4c-0.2,3.6-2.9,2.7-5.1,2.9c-0.7-3.5,0-7.2,1.2-10.2c1.9-4.7,1.3-10.2,5.6-14.2
			c8.1-7.6,18.3-10.6,28.4-14C390.3,354.4,391.2,355.1,392.3,355.5z"/>
		<path class="st8" d="M478.8,281.9c-11-14.5-24.5-23.4-40.1-29.5c-0.9-0.4-1.8-0.7-2-1.9c-0.3-1.8,1.2-1.6,2.1-2.1
			c5.5-2.9,11-6,14.8-11.2c0.9-1.2,1.6-2,3.1-0.7C469.2,248.4,477.5,262.6,478.8,281.9z"/>
		<path class="st8" d="M404.1,433.7c0-13.4,0-26.4,0-39.4c0-2.2,0.4-2.9,2.8-2.3c8,2.2,18.2,11.7,19.2,21.1c0.5,5-1.4,8.6-5,11.6
			C416.2,428.8,411,432,404.1,433.7z"/>
		<path class="st8" d="M326.2,342.3c-0.5-2.3,0.3-4.4,0.7-6.5c0-1.3,0.1-2.7,0.1-4c0-1.3,0-2.6,0-3.9c0-0.6,0-1.3,0.1-1.9
			c0,0,0.1-0.1,0.1-0.1c0.5-0.3,1.3-0.4,1.4-0.8c0.3-1-0.7-1.1-1.4-1.3c0-0.9,0-1.9,0-2.8c4.7-4.7,9.2-9.5,14.1-14
			c6-5.5,13.6-8.2,20.2-12.7c9.4-6.3,20.5-6.9,30.8-10c0.4,8.5,0.4,8.6-7.9,10.4c-19.1,4.1-35.9,12.3-48.1,28.2
			C331.7,328.8,329.2,335.7,326.2,342.3z"/>
		<path class="st5" d="M432.8,318c3.6,5.8,2.1,11.4-1.2,16.5c-2.4,3.7-6.4,2.5-9.8,1.5c-2.5-0.7-4.6-2.5-7.4-2.3
			c-1.4,0.1-2-0.7-2.2-2.1c-0.2-1.4,0.4-3.2-1.7-3.6c-2.4-0.4-2,2.1-3,3.2c-2.6-1.1,0.2-5-3.2-5.4c0-4.9,0-9.9,0-14.9
			c8.9,0.1,16.6,4,24.5,7.3C430.5,319,431.6,319.7,432.8,318z"/>
		<path class="st8" d="M404.3,371.4c2.9,5.1,8.5,5.8,13.2,7.7c2.8,1.2,4.3,3.9,7.4,4.6c1.6,0.4,2.5,3.5,4.9,2.4
			c2.8-1.2,4.5-3.6,5.9-6.2c4-7.3,1.3-13-3.9-18.3c9.7,5.6,16.1,13.9,17.3,25c1,9.1-4.5,16.1-11.1,22.8c-1.9-8.1-5.3-14.9-11-20.4
			c-4.9-4.7-10.4-8.4-17-9.5C404.9,378.6,403.1,376.3,404.3,371.4z"/>
		<path class="st5" d="M375.5,424.4c-5.5-5.2-6.3-9.5-2.6-17.6c3.2-7,8.7-11.7,16.2-14c2.5-0.8,3.6-0.6,3.4,2.4
			c-0.2,5.2-0.2,10.5-0.2,15.7c-1.1,4.4-4.8,6.8-8.5,7.7C380.1,419.6,380.3,425.6,375.5,424.4z"/>
		<path class="st7" d="M392.4,311c-14.4,1.7-27,7.6-38,16.8c-5.8,4.8-7.3,12.2-9.5,19c-1.1,3.5-1.9,7.2-3.1,10.7c-0.8,2.5,1,1.7,2,2
			c0,0.7,0.1,1.4,0.1,2.1c0,0,0-0.1,0-0.1c-0.3,0.5-0.7,1-1,1.5c-1.5,2.5-2.9,5-4.8,8.3c-2.4-7.9-2.2-15.1-0.4-22.1
			c6.4-24.8,29.8-39.7,52.4-41.7C393.5,307.2,393.2,308.8,392.4,311z"/>
		<path class="st7" d="M325.9,272.5c-2.3,3-4.6,5.9-7.4,9.4c-0.3-8.4,1.8-15.8,4.9-22.9c3.4-7.7,8.3-14.4,14.2-20.5
			c2.9-2.9,4.8-3.4,7,0.4c1,1.7,2.1,3.2,3.2,4.9c-0.3,0.7-0.4,1.8-0.9,2.2c-6,4.3-11.2,9.4-16.4,14.6
			C327.4,263.6,323.1,266.8,325.9,272.5z"/>
		<path class="st7" d="M457.1,278.1c-0.6,1.2,0.1,2.2,0.5,3.2c-8.7-2.7-16.7-7-24.8-11c-5.8-2.8-11.8-3.8-18-4.7
			c-3.6-0.5-7-1.4-10.6-2.2c-1.2-4.3,0.6-5.4,4.7-5c17.3,1.7,33.3,6.7,46.8,18.2c0.1,0.7,0.4,1.3,1.2,1.5L457.1,278.1z"/>
		<path class="st7" d="M392.3,355.5c-1-0.5-2-1.1-3.3-0.7c-10.1,3.3-20.3,6.3-28.4,14c-4.3,4-3.7,9.6-5.6,14.2
			c-1.2,2.9-1.9,6.6-1.2,10.2c0,0.6,0,1.3-0.1,1.9c-1.4,0.6-2.2,2.1-3.9,2c-4.5-8.5-2.1-16.7,2.5-23.7c8.8-13.3,22.5-19,37.8-21.5
			C393.6,351.3,392.9,353.5,392.3,355.5z"/>
		<path class="st5" d="M325.9,272.5c-2.8-5.7,1.5-8.9,4.6-12c5.2-5.2,10.4-10.4,16.4-14.6c0.6-0.4,0.6-1.4,0.9-2.2
			c5.3,0.9,8.8,5.8,14.4,6.5C348.5,255.1,336.5,262.7,325.9,272.5z"/>
		<path class="st8" d="M353.8,395.1c0-0.6,0-1.3,0.1-1.9c2.1-0.2,4.8,0.7,5.1-2.9c0-0.5,0.7-1.3,1.2-1.4c7.1-1.3,11.4-7.5,17.9-10
			c4.9-1.8,9.5-4.3,14.3-6.5c0.9,4-0.4,6-4.7,7.1c-15.2,4-25.1,13.5-28.9,29.4c-3.9-3.1-6.5-6.6-8.3-10.6
			C352,397.7,355.1,398.8,353.8,395.1z"/>
		<path class="st8" d="M344,361.6c0-0.7-0.1-1.4-0.1-2.1c9.3-12.2,21.9-19.9,36.2-24.8c4-1.4,7.9-3.4,12.3-3.9c0.9,5,0,7.5-6.2,8.5
			C369.8,342.2,355.3,349.1,344,361.6z"/>
		<path class="st8" d="M375.5,424.4c4.8,1.2,4.5-4.8,8.3-5.8c3.6-1,7.3-3.3,8.5-7.7c0.1,6.6,0,13.1,0.2,19.7
			c0.1,2.9-0.8,3.3-3.4,2.3C384,430.9,379.1,428.7,375.5,424.4z"/>
		<path class="st7" d="M432.8,318c-1.2,1.7-2.3,1-4,0.3c-7.9-3.3-15.7-7.2-24.5-7.3c-0.6-2.7-0.2-4.4,3.3-3.9
			c8.9,1.4,17.4,3.9,25.1,8.8C431.9,316.7,432.7,317.3,432.8,318z"/>
		<path class="st8" d="M354.7,214.2c0,0.3,0.1,0.7,0,1c-3.6,6.8-0.3,11.9,4,16.9c0.6,0.7,0.7,1.8,1,2.7
			C350.9,229.2,349.1,221.6,354.7,214.2z"/>
		<path class="st8" d="M392.3,328.8c-3-1.7-3-3.3,0-4.9C392.3,325.5,392.3,327.2,392.3,328.8z"/>
		<path class="st5" d="M353.8,395.1c1.3,3.7-1.8,2.6-3.4,3.1c-0.2-0.4-0.4-0.7-0.6-1.1C351.5,397.2,352.4,395.7,353.8,395.1z"/>
		<path class="st2" d="M364.9,155.2c-0.1-0.4-0.1-0.8-0.2-1.2c0.4,0.2,0.8,0.3,1.1,0.5C365.6,154.7,365.2,155,364.9,155.2z"/>
		<path class="st8" d="M434.2,207.4c-0.2,0.1-0.4,0.3-0.6,0.4c0.1-0.2,0.1-0.4,0.2-0.6C433.9,207.1,434.2,207.4,434.2,207.4z"/>
		<path class="st8" d="M457,278.2c-0.8-0.2-1.1-0.7-1.2-1.5C456.2,277.2,456.6,277.7,457,278.2z"/>
		<path class="st8" d="M342.9,363c0.3-0.5,0.7-1,1-1.5C343.6,362,343.3,362.5,342.9,363z"/>
		<path class="st5" d="M327,331.8c0,1.3-0.1,2.7-0.1,4C324.3,334.4,324.3,333.1,327,331.8z"/>
		<path class="st5" d="M327.1,323.8c0.7,0.2,1.6,0.3,1.4,1.3c-0.1,0.4-0.9,0.5-1.4,0.8C327.1,325.2,327.1,324.5,327.1,323.8z"/>
		<path class="st5" d="M327,325.9c0,0.6,0,1.3-0.1,1.9c-0.6-0.4-1.4-0.6-1.1-1.6C326,326.1,326.6,326,327,325.9z"/>
	</g>
</g>
</svg>
